<svg width="99" height="82" viewBox="0 0 99 82" fill="none" xmlns="http://www.w3.org/2000/svg">
<path d="M14.3678 64.782L10.2974 54.6692L20.4102 50.5988" stroke="white" stroke-width="2" stroke-linecap="round" stroke-linejoin="round"/>
<path d="M10.2974 54.6692L21.644 59.5031C29.4773 62.8403 38.5323 59.1957 41.8696 51.3623L42.4738 49.944" stroke="white" stroke-width="2" stroke-linecap="round" stroke-linejoin="round"/>
<path d="M36.8703 16.6796C36.4724 16.3822 36.156 16.0404 35.9212 15.6543C35.69 15.271 35.5439 14.8688 35.4831 14.4478C35.425 14.0232 35.4539 13.5925 35.5699 13.1557C35.6858 12.7189 35.8952 12.2979 36.1981 11.8927C36.3618 11.6737 36.537 11.4775 36.7235 11.304C36.9165 11.1296 37.1113 10.9794 37.308 10.8533C37.389 10.8057 37.4404 10.7674 37.4623 10.7382C37.4896 10.7017 37.5063 10.6602 37.5127 10.6137C37.519 10.5672 37.5248 10.5175 37.5302 10.4646C37.5356 10.4117 37.5441 10.3584 37.5559 10.3046C37.5677 10.2508 37.5926 10.1984 37.6308 10.1473C37.7454 9.99396 37.9449 9.90979 38.2293 9.89474C38.5163 9.87605 38.8464 9.9179 39.2193 10.0203C39.595 10.119 39.9913 10.2702 40.4081 10.4737C40.8277 10.6735 41.2292 10.9167 41.6124 11.2032C42.0833 11.5551 42.4617 11.9319 42.7477 12.3334C43.0372 12.7376 43.2289 13.1511 43.3225 13.5738C43.4225 13.9957 43.4237 14.4204 43.3259 14.8481C43.2282 15.2757 43.0292 15.6903 42.7291 16.0918C42.3935 16.5408 41.9903 16.8937 41.5195 17.1506C41.0514 17.4038 40.554 17.5555 40.0273 17.6055C39.5042 17.6583 38.9695 17.6086 38.4233 17.4564C37.8771 17.3041 37.3594 17.0452 36.8703 16.6796ZM41.4689 15.4827C41.6818 15.198 41.8235 14.9056 41.8941 14.6056C41.9647 14.3057 41.9642 14.0094 41.8927 13.717C41.8238 13.4209 41.6825 13.1303 41.4688 12.8454C41.2614 12.5595 40.9862 12.2883 40.6431 12.0319C40.0408 11.5817 39.4717 11.3953 38.9359 11.4727C38.4065 11.5492 37.9167 11.8886 37.4665 12.4909C37.2482 12.7829 37.0933 13.0853 37.0017 13.3981C36.9129 13.7072 36.8851 14.0108 36.9184 14.3088C36.9544 14.6031 37.0488 14.8842 37.2014 15.1519C37.3604 15.4187 37.5768 15.6544 37.8506 15.859C38.1645 16.0937 38.4884 16.2618 38.8221 16.3633C39.1586 16.4612 39.4854 16.4921 39.8025 16.4561C40.1233 16.4228 40.4267 16.3252 40.7126 16.1634C41.0013 15.998 41.2534 15.7711 41.4689 15.4827ZM47.5831 17.2365C47.4481 17.1356 47.3021 17.0834 47.1454 17.08C46.9913 17.0729 46.83 17.106 46.6615 17.1792C46.4958 17.2487 46.325 17.3516 46.1493 17.4876C45.9764 17.6201 45.8003 17.7758 45.621 17.9547C45.4417 18.1336 45.2648 18.3285 45.0901 18.5394C44.9154 18.7502 44.7449 18.9669 44.5784 19.1896C44.3602 19.4816 44.1556 19.7782 43.9646 20.0793C43.7801 20.3794 43.5978 20.65 43.4177 20.8909C43.3004 21.0478 43.1506 21.1265 42.9683 21.1268C42.7833 21.1307 42.5831 21.0522 42.3677 20.8912C42.3276 20.8612 42.2847 20.8234 42.239 20.7779C42.1934 20.7324 42.155 20.681 42.1239 20.6236C42.0965 20.569 42.0795 20.5079 42.073 20.4405C42.0675 20.3795 42.0874 20.3147 42.1329 20.2463C42.3401 19.9005 42.5382 19.5365 42.7272 19.1543C42.9162 18.7721 43.0874 18.3794 43.2407 17.9763C43.4005 17.5723 43.5375 17.1569 43.6516 16.7301C43.7694 16.3061 43.8617 15.8744 43.9284 15.435C43.9402 15.3584 43.9528 15.2882 43.9664 15.2244C43.9836 15.1633 44.0086 15.1108 44.0413 15.067C44.0823 15.0123 44.1496 14.9716 44.2435 14.945C44.3437 14.9175 44.4508 14.9037 44.5647 14.9035C44.6823 14.906 44.7972 14.9236 44.9093 14.9562C45.0279 14.988 45.1291 15.0352 45.2131 15.0979C45.3518 15.2016 45.4017 15.3898 45.363 15.6623C45.327 15.9313 45.1977 16.3098 44.9752 16.7977C44.9389 16.8844 44.9153 16.9464 44.9044 16.9838C44.8935 17.0212 44.8972 17.0467 44.9154 17.0603C44.9556 17.0904 45.0275 17.0474 45.1312 16.9315C45.4343 16.6174 45.7315 16.3759 46.0229 16.2068C46.317 16.0341 46.6025 15.926 46.8796 15.8828C47.163 15.8385 47.4355 15.8545 47.6972 15.9307C47.9626 16.0095 48.2194 16.1417 48.4676 16.3273C48.6099 16.4337 48.7446 16.5542 48.8715 16.6889C48.9984 16.8236 49.1012 16.9602 49.1798 17.0986C49.2584 17.237 49.3069 17.37 49.3253 17.4976C49.3438 17.6251 49.3189 17.7346 49.2507 17.8258C49.2016 17.8915 49.1283 17.9591 49.0309 18.0285C48.9398 18.097 48.841 18.1569 48.7345 18.2081C48.6307 18.2556 48.5277 18.2868 48.4257 18.3016C48.33 18.3154 48.2529 18.3005 48.1945 18.2568C48.1288 18.2077 48.0786 18.1417 48.0438 18.0588C48.0118 17.9723 47.9756 17.8798 47.9354 17.7814C47.8987 17.6858 47.8539 17.5897 47.8009 17.4932C47.7543 17.3957 47.6817 17.3102 47.5831 17.2365ZM52.184 20.8207C52.1932 20.8389 52.2123 20.8589 52.2415 20.8808C52.3218 20.9408 52.4016 20.9179 52.4807 20.812L53.7535 19.1092C53.9145 18.8938 54.0766 18.776 54.2397 18.7557C54.4064 18.7381 54.603 18.8139 54.8293 18.983C55.0593 19.1549 55.1862 19.3238 55.2102 19.4896C55.2342 19.6555 55.1602 19.8534 54.9883 20.0834C54.9228 20.171 54.8205 20.2965 54.6813 20.4598C54.5448 20.6196 54.3888 20.8016 54.2132 21.0061C54.0413 21.2133 53.8571 21.4369 53.6606 21.6769C53.4668 21.9133 53.2799 22.1519 53.0998 22.3928C52.8215 22.7652 52.607 23.1055 52.4562 23.4138C52.3054 23.7221 52.2106 24.0012 52.1718 24.251C52.1357 24.4971 52.1506 24.7131 52.2166 24.899C52.2852 25.0811 52.4017 25.2336 52.5659 25.3564C52.6572 25.4246 52.7475 25.4751 52.8369 25.5077C52.9326 25.5395 53.0316 25.5935 53.1338 25.6699C53.2068 25.7245 53.2384 25.8079 53.2286 25.92C53.2251 26.0312 53.1838 26.1397 53.1047 26.2456C53.0337 26.3405 52.9377 26.4081 52.8165 26.4484C52.699 26.4914 52.5678 26.5071 52.4229 26.4955C52.2816 26.4866 52.1334 26.4527 51.9784 26.3937C51.826 26.331 51.6805 26.2479 51.5418 26.1442C51.2425 25.9205 51.0369 25.6246 50.9252 25.2565C50.8161 24.8848 50.8414 24.4628 51.001 23.9904C51.0337 23.9238 51.0373 23.8809 51.0118 23.8618C50.9826 23.84 50.937 23.8515 50.8751 23.8962C50.5774 24.089 50.2677 24.2331 49.9461 24.3284C49.6309 24.4228 49.3101 24.4675 48.9838 24.4626C48.6639 24.4567 48.348 24.3998 48.0361 24.2918C47.7278 24.1866 47.435 24.0303 47.1576 23.8229C46.8656 23.6047 46.6341 23.3548 46.4632 23.0735C46.2933 22.7985 46.1848 22.5097 46.1378 22.2072C46.0936 21.901 46.1095 21.5943 46.1855 21.287C46.2643 20.9761 46.4061 20.6837 46.6107 20.41C46.8726 20.0595 47.1926 19.7838 47.5705 19.5826C47.9484 19.3815 48.3474 19.2587 48.7676 19.2143C49.194 19.1689 49.6239 19.2029 50.057 19.3161C50.4901 19.4293 50.8947 19.6265 51.2706 19.9075C51.4239 20.0221 51.5768 20.1563 51.7293 20.3101C51.8845 20.4602 52.0361 20.6304 52.184 20.8207ZM48.1078 22.997C48.3159 23.1525 48.5343 23.2447 48.7632 23.2735C48.9956 23.305 49.2258 23.2978 49.4536 23.2519C49.6877 23.205 49.9114 23.1303 50.1245 23.0279C50.3403 22.9218 50.5357 22.809 50.7105 22.6893C50.8853 22.5696 51.0332 22.4554 51.1542 22.3468C51.2753 22.2381 51.3563 22.1564 51.3972 22.1016C51.4272 22.0615 51.4422 22.0186 51.4421 21.9731C51.4448 21.9238 51.431 21.8737 51.4009 21.8227C51.3214 21.7235 51.2356 21.6252 51.1434 21.5278C51.0539 21.4268 50.9635 21.3308 50.8722 21.2398C50.7809 21.1488 50.6905 21.0642 50.6011 20.9859C50.5153 20.9104 50.4341 20.844 50.3574 20.7867C50.1384 20.623 49.9149 20.5072 49.6869 20.4392C49.4589 20.3712 49.2361 20.3497 49.0183 20.3746C48.8041 20.4023 48.5996 20.4742 48.4047 20.5903C48.2126 20.7027 48.0429 20.8574 47.8955 21.0546C47.7646 21.2298 47.6714 21.4077 47.6161 21.5882C47.5672 21.7679 47.5515 21.9411 47.5691 22.1078C47.5903 22.2773 47.6462 22.4386 47.7367 22.5915C47.8272 22.7445 47.9509 22.8797 48.1078 22.997ZM57.6555 29.2802C57.8295 29.2681 57.9677 29.3002 58.0699 29.3766C58.1283 29.4203 58.1703 29.4745 58.1959 29.5391C58.2216 29.6038 58.2404 29.689 58.2524 29.7947C58.2444 29.9196 58.2309 30.0176 58.2119 30.0887C58.1992 30.1589 58.1738 30.2196 58.1356 30.2707C58.0537 30.3802 57.9212 30.4433 57.738 30.46C57.4537 30.475 57.1657 30.4646 56.8739 30.4286C56.5849 30.3889 56.2991 30.326 56.0164 30.2399C55.7337 30.1538 55.4587 30.0421 55.1914 29.9049C54.9214 29.7714 54.6696 29.6173 54.436 29.4427C54.1403 29.2216 53.8916 28.976 53.6897 28.7056C53.4851 28.4389 53.3324 28.1597 53.2317 27.8682C53.1346 27.5795 53.089 27.2865 53.0949 26.9893C53.1036 26.6886 53.1701 26.394 53.2945 26.1058C53.338 25.9791 53.3561 25.8902 53.3488 25.8391C53.3478 25.7872 53.3162 25.738 53.2542 25.6916C53.1191 25.5907 53.0396 25.4801 53.0158 25.3598C52.9919 25.2395 53.0263 25.1173 53.1191 24.9932C53.1573 24.9421 53.1855 24.912 53.2037 24.9028L53.2965 24.8015C53.413 24.6838 53.5186 24.6148 53.6133 24.5946C53.7118 24.5771 53.8175 24.6106 53.9307 24.6952L54.0128 24.7566C54.1661 24.8712 54.327 24.8805 54.4955 24.7845C54.7969 24.6173 55.113 24.4951 55.4437 24.418C55.7745 24.3409 56.1039 24.3112 56.4321 24.3289C56.7629 24.3429 57.0825 24.4026 57.3907 24.5078C57.7054 24.6121 57.9923 24.7611 58.2514 24.9549C58.5215 25.1568 58.7434 25.3852 58.917 25.6401C59.097 25.8941 59.2227 26.156 59.2942 26.4256C59.3658 26.6953 59.3812 26.9601 59.3406 27.2199C59.3037 27.4825 59.2047 27.7214 59.0437 27.9368C58.9319 28.0864 58.8004 28.2015 58.6492 28.282C58.498 28.3624 58.3322 28.4092 58.1518 28.4222C57.974 28.4316 57.7849 28.4069 57.5842 28.3479C57.3873 28.2917 57.1834 28.1991 56.9727 28.07L54.9295 26.8415C54.8565 26.7869 54.7826 26.7601 54.7079 26.7612C54.6368 26.7649 54.578 26.7978 54.5316 26.8599C54.4607 26.9548 54.4272 27.072 54.431 27.2114C54.4386 27.3536 54.4748 27.503 54.5398 27.6597C54.6111 27.8154 54.7084 27.9707 54.8317 28.1254C54.9587 28.2829 55.1043 28.423 55.2685 28.5458C55.4255 28.6631 55.597 28.7686 55.7831 28.8622C55.9756 28.9548 56.174 29.032 56.3782 29.0936C56.5861 29.158 56.7968 29.2073 57.0101 29.2416C57.2262 29.2723 57.4413 29.2851 57.6555 29.2802ZM57.4904 26.9549C57.5533 26.9849 57.6199 26.9948 57.6901 26.9847C57.763 26.9709 57.8226 26.933 57.869 26.8709C57.9099 26.8162 57.928 26.75 57.9233 26.6726C57.9187 26.5951 57.8953 26.5122 57.8532 26.4239C57.8139 26.3319 57.7568 26.2408 57.6819 26.1507C57.607 26.0606 57.5184 25.9773 57.4162 25.9009C57.2666 25.7891 57.0969 25.6964 56.9072 25.6228C56.7175 25.5493 56.5315 25.5013 56.3491 25.4788C56.1695 25.4527 56.0069 25.4534 55.8611 25.481C55.718 25.5049 55.6151 25.5588 55.5523 25.6428C55.4896 25.7268 55.5093 25.8069 55.6115 25.8833C55.6736 25.9297 55.7794 25.9975 55.929 26.0865C56.0787 26.1756 56.2442 26.2738 56.4258 26.381C56.6101 26.4847 56.7976 26.5878 56.9882 26.6905C57.1789 26.7932 57.3463 26.8813 57.4904 26.9549ZM63.9216 29.4492C63.7865 29.3483 63.6406 29.2961 63.4838 29.2927C63.3298 29.2857 63.1685 29.3187 63 29.3919C62.8342 29.4615 62.6635 29.5643 62.4878 29.7004C62.3148 29.8328 62.1387 29.9885 61.9595 30.1674C61.7802 30.3464 61.6032 30.5413 61.4286 30.7521C61.2539 30.9629 61.0833 31.1797 60.9169 31.4023C60.6986 31.6943 60.494 31.9909 60.3031 32.292C60.1186 32.5922 59.9363 32.8627 59.7562 33.1036C59.6389 33.2606 59.489 33.3392 59.3068 33.3395C59.1217 33.3434 58.9215 33.2649 58.7062 33.1039C58.666 33.0739 58.6231 33.0362 58.5775 32.9907C58.5318 32.9452 58.4935 32.8937 58.4624 32.8364C58.435 32.7817 58.418 32.7207 58.4115 32.6532C58.4059 32.5922 58.4259 32.5274 58.4713 32.459C58.6786 32.1132 58.8767 31.7492 59.0657 31.367C59.2546 30.9848 59.4258 30.5922 59.5792 30.1891C59.739 29.785 59.8759 29.3696 59.9901 28.9429C60.1079 28.5189 60.2002 28.0871 60.2669 27.6477C60.2786 27.5711 60.2913 27.5009 60.3049 27.4371C60.3221 27.376 60.3471 27.3236 60.3798 27.2797C60.4207 27.225 60.4881 27.1843 60.5819 27.1577C60.6822 27.1302 60.7892 27.1164 60.9032 27.1162C61.0207 27.1188 61.1356 27.1363 61.2478 27.169C61.3663 27.2007 61.4676 27.2479 61.5515 27.3107C61.6902 27.4144 61.7402 27.6025 61.7015 27.8751C61.6654 28.144 61.5362 28.5225 61.3136 29.0105C61.2773 29.0971 61.2537 29.1591 61.2428 29.1965C61.232 29.2339 61.2357 29.2594 61.2539 29.2731C61.2941 29.3031 61.366 29.2601 61.4697 29.1442C61.7727 28.8302 62.0699 28.5886 62.3613 28.4195C62.6554 28.2468 62.941 28.1388 63.218 28.0955C63.5014 28.0513 63.774 28.0672 64.0357 28.1434C64.301 28.2223 64.5578 28.3545 64.8061 28.54C64.9484 28.6464 65.083 28.767 65.21 28.9016C65.3369 29.0363 65.4396 29.1729 65.5182 29.3113C65.5968 29.4497 65.6454 29.5827 65.6638 29.7103C65.6822 29.8379 65.6573 29.9473 65.5891 30.0385C65.54 30.1042 65.4668 30.1718 65.3693 30.2412C65.2783 30.3097 65.1795 30.3696 65.073 30.4208C64.9691 30.4684 64.8662 30.4995 64.7641 30.5143C64.6684 30.5281 64.5914 30.5132 64.533 30.4695C64.4673 30.4204 64.417 30.3544 64.3823 30.2715C64.3502 30.185 64.3141 30.0925 64.2738 29.9942C64.2372 29.8985 64.1924 29.8024 64.1394 29.7059C64.0927 29.6085 64.0201 29.5229 63.9216 29.4492ZM66.3184 32.9221C66.2399 32.8521 66.2133 32.7468 66.2386 32.6064C66.2639 32.466 66.3229 32.3338 66.4157 32.2097C66.4593 32.1513 66.5071 32.0988 66.559 32.0522C66.6099 31.9993 66.6627 31.9591 66.7174 31.9316C66.772 31.9042 66.8253 31.89 66.8773 31.889C66.932 31.8844 66.9812 31.8984 67.025 31.9311C67.1601 32.0321 67.3179 32.1444 67.4986 32.2681C67.682 32.3881 67.8782 32.5177 68.0871 32.6568C68.1975 32.7222 68.2991 32.7043 68.3919 32.603C68.8204 32.0982 69.2071 31.6761 69.552 31.3364C69.8969 30.9968 70.2095 30.727 70.4899 30.5269C70.7731 30.3232 71.0289 30.1788 71.2576 30.0937C71.4899 30.0112 71.7045 29.9754 71.9014 29.986C71.9633 29.9868 72.0326 29.9931 72.1092 30.0048C72.1885 30.0129 72.2519 30.0346 72.2993 30.0701C72.3906 30.1383 72.4678 30.233 72.5309 30.3541C72.6003 30.4743 72.6498 30.6023 72.6791 30.738C72.7149 30.8729 72.7261 31.0064 72.7126 31.1386C72.7019 31.2671 72.6638 31.3752 72.5983 31.4628C72.5737 31.4956 72.546 31.5176 72.515 31.5285C72.4867 31.5359 72.4548 31.5405 72.4193 31.5424C72.1978 31.5418 71.9832 31.5663 71.7755 31.6159C71.5677 31.6654 71.3546 31.7565 71.1361 31.889C70.9175 32.0215 70.6831 32.2019 70.4328 32.4301C70.1826 32.6584 69.9041 32.951 69.5975 33.3079C69.5539 33.3663 69.5303 33.4169 69.5267 33.4597C69.5295 33.5017 69.5583 33.5431 69.613 33.584C69.7554 33.6904 69.9059 33.7859 70.0647 33.8704C70.227 33.9576 70.3821 34.0394 70.5299 34.1157C70.6804 34.1884 70.8222 34.2574 70.9554 34.3229C71.0886 34.3883 71.2008 34.4551 71.2921 34.5233C71.3578 34.5724 71.3752 34.648 71.3444 34.7502C71.3199 34.8514 71.2654 34.9586 71.1808 35.0717C71.1317 35.1374 71.0758 35.2009 71.013 35.262C70.9502 35.3232 70.8856 35.3716 70.8191 35.4073C70.7563 35.4456 70.6916 35.4713 70.6251 35.4841C70.5613 35.4934 70.4993 35.4811 70.4391 35.4475L68.868 34.5122C68.7832 34.4658 68.7125 34.4614 68.6561 34.4988C68.6033 34.539 68.5428 34.6047 68.4746 34.696C67.8716 35.5027 67.3732 36.2113 66.9796 36.8217C66.5859 37.4321 66.2654 37.9521 66.0182 38.3818C65.7719 38.8179 65.5843 39.1641 65.4552 39.4204C65.3235 39.6804 65.2194 39.8615 65.143 39.9637C65.0857 40.0403 65.0029 40.0865 64.8944 40.1022C64.7896 40.1206 64.6734 40.1162 64.5458 40.0891C64.4218 40.0647 64.2968 40.0225 64.171 39.9625C64.0423 39.9062 63.9306 39.8426 63.8357 39.7717C63.7444 39.7034 63.6746 39.6256 63.6261 39.5382C63.5786 39.4572 63.5766 39.376 63.6203 39.2949C63.7748 39.012 63.9538 38.7078 64.1575 38.3821C64.3584 38.06 64.5889 37.706 64.8489 37.32C65.1099 36.9404 65.4004 36.5289 65.7206 36.0854C66.0434 35.6383 66.4013 35.1519 66.7942 34.6262C66.8951 34.4912 66.9934 34.3598 67.0889 34.232C67.1844 34.1043 67.2835 33.9792 67.3863 33.8569C67.4682 33.7474 67.4489 33.6477 67.3284 33.5576L66.3184 32.9221ZM73.9962 36.9799C73.8612 36.8789 73.7153 36.8267 73.5585 36.8234C73.4044 36.8163 73.2432 36.8494 73.0747 36.9226C72.9089 36.9921 72.7382 37.0949 72.5625 37.231C72.3895 37.3635 72.2134 37.5191 72.0341 37.6981C71.8548 37.877 71.6779 38.0719 71.5032 38.2827C71.3286 38.4936 71.158 38.7103 70.9916 38.933C70.7733 39.225 70.5687 39.5215 70.3778 39.8226C70.1932 40.1228 70.0109 40.3933 69.8308 40.6343C69.7135 40.7912 69.5637 40.8698 69.3814 40.8701C69.1964 40.8741 68.9962 40.7956 68.7808 40.6346C68.7407 40.6046 68.6978 40.5668 68.6521 40.5213C68.6065 40.4758 68.5681 40.4244 68.537 40.367C68.5096 40.3124 68.4926 40.2513 68.4862 40.1839C68.4806 40.1228 68.5005 40.0581 68.546 39.9896C68.7533 39.6439 68.9514 39.2799 69.1403 38.8977C69.3293 38.5155 69.5005 38.1228 69.6539 37.7197C69.8136 37.3157 69.9506 36.9003 70.0647 36.4735C70.1826 36.0495 70.2748 35.6178 70.3416 35.1783C70.3533 35.1018 70.3659 35.0316 70.3795 34.9677C70.3967 34.9066 70.4217 34.8542 70.4545 34.8104C70.4954 34.7556 70.5628 34.715 70.6566 34.6884C70.7568 34.6609 70.8639 34.647 70.9778 34.6468C71.0954 34.6494 71.2103 34.667 71.3224 34.6996C71.441 34.7313 71.5422 34.7786 71.6262 34.8413C71.7649 34.945 71.8149 35.1331 71.7761 35.4057C71.7401 35.6747 71.6108 36.0531 71.3883 36.5411C71.352 36.6278 71.3284 36.6898 71.3175 36.7272C71.3066 36.7645 71.3103 36.7901 71.3286 36.8037C71.3687 36.8337 71.4407 36.7908 71.5444 36.6748C71.8474 36.3608 72.1446 36.1193 72.436 35.9502C72.7301 35.7774 73.0157 35.6694 73.2927 35.6261C73.5761 35.5819 73.8486 35.5979 74.1103 35.674C74.3757 35.7529 74.6325 35.8851 74.8807 36.0706C75.0231 36.177 75.1577 36.2976 75.2846 36.4323C75.4115 36.567 75.5143 36.7035 75.5929 36.8419C75.6715 36.9804 75.72 37.1134 75.7385 37.2409C75.7569 37.3685 75.732 37.4779 75.6638 37.5692C75.6147 37.6349 75.5414 37.7024 75.444 37.7719C75.353 37.8404 75.2542 37.9002 75.1476 37.9515C75.0438 37.999 74.9408 38.0302 74.8388 38.0449C74.7431 38.0587 74.6661 38.0438 74.6076 38.0002C74.5419 37.9511 74.4917 37.8851 74.4569 37.8022C74.4249 37.7156 74.3887 37.6232 74.3485 37.5248C74.3119 37.4292 74.2671 37.3331 74.214 37.2366C74.1674 37.1391 74.0948 37.0535 73.9962 36.9799ZM73.3723 40.0639C73.4187 40.0018 73.4778 39.9379 73.5497 39.8722C73.6216 39.8065 73.6917 39.728 73.7599 39.6367C73.8063 39.5746 73.8144 39.5067 73.7842 39.433C73.7576 39.3619 73.7265 39.2817 73.6908 39.1925C73.6551 39.1032 73.6331 39.0071 73.6247 38.9041C73.62 38.8039 73.6613 38.6953 73.7486 38.5785C73.8114 38.4946 73.896 38.427 74.0026 38.3758C74.1128 38.3273 74.2376 38.3011 74.3771 38.2972C74.7125 38.2976 75.0429 38.3199 75.3684 38.364C75.6975 38.4109 76.0098 38.4764 76.3052 38.5607C76.6043 38.6477 76.8848 38.7521 77.1466 38.8738C77.4083 38.9955 77.6433 39.1342 77.8513 39.2897C78.2018 39.5516 78.4812 39.8629 78.6896 40.2235C78.9043 40.5832 79.0403 40.9607 79.0974 41.3562C79.161 41.7508 79.1452 42.1487 79.0501 42.5499C78.9615 42.9501 78.7889 43.3218 78.5324 43.6649C78.2814 44.0008 77.9715 44.267 77.6026 44.4635C77.2402 44.6592 76.8558 44.7815 76.4493 44.8304C76.0429 44.8794 75.63 44.8495 75.2105 44.7408C74.792 44.6385 74.4057 44.455 74.0516 44.1903C73.7048 43.9311 73.4273 43.6326 73.2189 43.2948C73.0106 42.957 72.8751 42.6054 72.8125 42.24C72.7527 41.8709 72.7676 41.5009 72.8572 41.1298C72.9496 40.755 73.1213 40.3997 73.3723 40.0639ZM74.9088 43.2948C75.0621 43.4094 75.2441 43.4971 75.4547 43.5578C75.6653 43.6185 75.8818 43.641 76.1042 43.6251C76.333 43.6083 76.5553 43.5469 76.7711 43.4408C76.9906 43.3375 77.1808 43.1781 77.3418 42.9628C77.5055 42.7438 77.6182 42.5093 77.6798 42.2595C77.7413 42.0096 77.7528 41.7622 77.7141 41.517C77.6818 41.271 77.5989 41.0355 77.4655 40.8106C77.3357 40.5884 77.1595 40.3941 76.9368 40.2277C76.5317 39.9248 76.1423 39.7987 75.7686 39.8495C75.3978 39.8966 75.05 40.1373 74.7253 40.5717C74.5479 40.8089 74.4175 41.0557 74.3341 41.312C74.257 41.5673 74.2264 41.8175 74.2423 42.0627C74.2609 42.3042 74.3247 42.531 74.4335 42.7432C74.5459 42.9582 74.7044 43.142 74.9088 43.2948ZM78.0794 46.7829C78.4168 46.2783 78.709 45.7998 78.9562 45.3473C79.2098 44.8939 79.4201 44.4907 79.5873 44.1377C79.7581 43.7874 79.8907 43.4996 79.9851 43.2743C80.0832 43.0518 80.15 42.9168 80.1854 42.8693C80.2373 42.8 80.3133 42.7515 80.4135 42.724C80.5174 42.6992 80.6272 42.6931 80.743 42.7057C80.8615 42.7146 80.9773 42.7386 81.0904 42.7776C81.2071 42.8194 81.3038 42.8689 81.3804 42.9262C81.4425 42.9726 81.4872 43.0231 81.5147 43.0777C81.5458 43.1351 81.5513 43.1961 81.5314 43.2609C81.5032 43.3366 81.4706 43.4146 81.4333 43.4948C81.4025 43.5742 81.3607 43.6681 81.308 43.7767C81.2289 43.9281 81.2077 44.0175 81.2442 44.0448C81.2843 44.0748 81.375 44.0486 81.5161 43.9664C81.7146 43.853 81.8968 43.773 82.0626 43.7262C82.2284 43.6795 82.382 43.6606 82.5232 43.6695C82.6709 43.6774 82.8054 43.7068 82.9267 43.7577C83.0517 43.8112 83.1707 43.8803 83.2839 43.9649C83.627 44.2214 83.8162 44.5734 83.8516 45.0208C83.8906 45.471 83.7866 46.0021 83.5397 46.6141C83.5143 46.6862 83.5021 46.7368 83.503 46.7659C83.5067 46.7914 83.5177 46.811 83.536 46.8247C83.5542 46.8383 83.5779 46.8446 83.6071 46.8437C83.6426 46.8418 83.6886 46.8221 83.7451 46.7847C84.01 46.6129 84.2623 46.4885 84.5019 46.4116C84.7442 46.331 84.9656 46.286 85.1661 46.2765C85.373 46.2662 85.5599 46.2864 85.7268 46.3371C85.8936 46.3879 86.0373 46.4583 86.1578 46.5484C86.3804 46.7148 86.5198 46.947 86.5759 47.245C86.6384 47.542 86.6121 47.9121 86.497 48.3552C86.3884 48.7975 86.1914 49.316 85.9062 49.9107C85.6273 50.5045 85.2579 51.1814 84.7979 51.9414C84.6506 52.1385 84.488 52.2304 84.3103 52.217C84.1298 52.2072 83.9355 52.1246 83.7275 51.9691C83.5924 51.8681 83.5084 51.7598 83.4754 51.6441C83.4424 51.5284 83.4559 51.419 83.5159 51.3159C83.8477 50.7731 84.1317 50.2827 84.368 49.8448C84.6106 49.406 84.8001 49.027 84.9363 48.7078C85.0752 48.3849 85.1577 48.1222 85.1838 47.9199C85.2136 47.7202 85.181 47.5849 85.0861 47.514C85.0386 47.4785 84.9525 47.4681 84.8276 47.4829C84.7064 47.5004 84.5361 47.5723 84.3167 47.6984C84.0999 47.8209 83.8277 48.01 83.5 48.2657C83.175 48.5178 82.7868 48.8621 82.3354 49.2985C82.2099 49.4208 82.0632 49.4762 81.8955 49.4646C81.7314 49.4558 81.5691 49.3913 81.4084 49.2713C81.2223 49.1321 81.1145 49.006 81.0852 48.8931C81.0595 48.7828 81.0948 48.6556 81.1912 48.5114C81.3567 48.2596 81.5099 48.0014 81.6507 47.7369C81.7979 47.4714 81.9265 47.2119 82.0364 46.9583C82.149 46.7011 82.2425 46.4581 82.3168 46.2292C82.3939 45.9966 82.4483 45.7869 82.4799 45.6C82.5142 45.4094 82.5235 45.2486 82.5078 45.1173C82.4921 44.9861 82.4496 44.8946 82.3802 44.8427C82.289 44.7745 82.1518 44.7715 81.9687 44.8338C81.7892 44.8988 81.5775 45.0222 81.3335 45.204C81.0932 45.3885 80.8302 45.63 80.5445 45.9285C80.2587 46.227 79.9645 46.5789 79.6616 46.984C79.6098 47.0534 79.5597 47.1241 79.5115 47.1962C79.4661 47.2646 79.4161 47.3353 79.3615 47.4083C79.2796 47.5179 79.1945 47.5936 79.1062 47.6357C79.0215 47.6805 78.9313 47.6984 78.8356 47.6895C78.7435 47.6832 78.65 47.656 78.5552 47.6079C78.4603 47.5597 78.3636 47.4988 78.265 47.4252C78.1738 47.3569 78.1062 47.2951 78.0624 47.2395C78.0158 47.1877 77.9875 47.138 77.9774 47.0907C77.9673 47.0433 77.9731 46.9936 77.9949 46.9416C78.014 46.8933 78.0422 46.8404 78.0794 46.7829ZM43.0814 33.261C43.3761 32.8667 43.7789 32.8606 44.29 33.2426C44.3776 33.3081 44.4365 33.3891 44.4667 33.4857C44.497 33.5823 44.4862 33.6766 44.4344 33.7688C44.3008 34.016 44.1649 34.2586 44.0268 34.4968C43.8886 34.7349 43.7282 34.999 43.5454 35.2891C43.3691 35.5784 43.1581 35.91 42.9127 36.2841C42.6735 36.6573 42.3844 37.1012 42.0453 37.6158C42.0071 37.6669 41.9871 37.7088 41.9853 37.7417C41.9872 37.7772 41.9991 37.8032 42.021 37.8195C42.0538 37.8441 42.1112 37.8358 42.1932 37.7946C42.522 37.6136 42.8435 37.4728 43.1578 37.372C43.4748 37.2676 43.7768 37.206 44.0639 37.1873C44.3537 37.165 44.624 37.1878 44.8748 37.2557C45.1319 37.3228 45.3627 37.4327 45.5671 37.5855C45.8372 37.7874 46.0245 38.0469 46.1289 38.3639C46.2333 38.6809 46.2571 39.0372 46.2004 39.4329C46.1436 39.8286 46.0071 40.2585 45.7909 40.7228C45.5775 41.1835 45.2866 41.6602 44.9182 42.1529C44.8173 42.288 44.7231 42.3911 44.6357 42.4624C44.5547 42.5327 44.4714 42.5757 44.3857 42.5913C44.3001 42.6069 44.2084 42.5925 44.1108 42.548C44.0105 42.5071 43.8983 42.4403 43.7742 42.3476C43.6026 42.2193 43.5031 42.0937 43.4755 41.9707C43.4516 41.8504 43.4915 41.7209 43.5952 41.5822C43.8517 41.2391 44.0694 40.8983 44.2485 40.5599C44.4338 40.2205 44.5723 39.9058 44.6639 39.6159C44.7555 39.3259 44.797 39.0724 44.7885 38.8555C44.7836 38.6413 44.7191 38.4878 44.595 38.3951C44.3139 38.185 43.8623 38.203 43.2402 38.4492C42.6217 38.6981 41.8172 39.1693 40.8266 39.8627C40.7347 39.9248 40.65 39.9696 40.5725 39.9971C40.4951 40.0245 40.4186 40.0356 40.3429 40.0302C40.2709 40.0276 40.1961 40.0059 40.1186 39.965C40.0383 39.9277 39.9507 39.8736 39.8558 39.8027C39.6624 39.6581 39.5509 39.5179 39.5215 39.3822C39.4958 39.2491 39.5421 39.0959 39.6603 38.9226C40.1131 38.271 40.5259 37.6351 40.8986 37.0147C41.2777 36.3934 41.6108 35.8259 41.898 35.3123C42.1916 34.7978 42.436 34.3603 42.6314 34C42.8332 33.6387 42.9832 33.3924 43.0814 33.261ZM50.8721 45.4342C51.0462 45.422 51.1844 45.4542 51.2866 45.5306C51.345 45.5742 51.387 45.6284 51.4126 45.6931C51.4382 45.7577 51.457 45.8429 51.4691 45.9486C51.4611 46.0735 51.4476 46.1715 51.4285 46.2426C51.4159 46.3128 51.3905 46.3735 51.3523 46.4246C51.2704 46.5341 51.1379 46.5972 50.9547 46.6139C50.6704 46.629 50.3823 46.6185 50.0906 46.5825C49.8016 46.5429 49.5158 46.48 49.2331 46.3938C48.9504 46.3077 48.6754 46.196 48.4081 46.0588C48.1381 45.9253 47.8863 45.7712 47.6527 45.5966C47.357 45.3756 47.1082 45.1299 46.9064 44.8595C46.7018 44.5928 46.5491 44.3137 46.4484 44.0222C46.3513 43.7334 46.3057 43.4404 46.3116 43.1433C46.3202 42.8425 46.3868 42.548 46.5112 42.2598C46.5547 42.133 46.5728 42.0441 46.5654 41.9931C46.5644 41.9411 46.5329 41.8919 46.4708 41.8456C46.3358 41.7446 46.2563 41.634 46.2324 41.5137C46.2085 41.3934 46.243 41.2712 46.3357 41.1471C46.3739 41.096 46.4021 41.0659 46.4204 41.0568L46.5132 40.9554C46.6296 40.8377 46.7353 40.7687 46.83 40.7485C46.9284 40.731 47.0342 40.7646 47.1474 40.8492L47.2295 40.9105C47.3828 41.0251 47.5437 41.0345 47.7122 40.9385C48.0136 40.7712 48.3297 40.649 48.6604 40.5719C48.9911 40.4948 49.3206 40.4651 49.6487 40.4828C49.9796 40.4969 50.2992 40.5565 50.6074 40.6617C50.922 40.766 51.2089 40.9151 51.4681 41.1088C51.7382 41.3107 51.9601 41.5391 52.1337 41.794C52.3136 42.048 52.4394 42.3099 52.5109 42.5796C52.5824 42.8492 52.5979 43.114 52.5573 43.3738C52.5204 43.6364 52.4214 43.8754 52.2604 44.0907C52.1485 44.2404 52.017 44.3554 51.8658 44.4359C51.7147 44.5163 51.5489 44.5631 51.3684 44.5761C51.1907 44.5855 51.0015 44.5608 50.8009 44.5019C50.6039 44.4457 50.4001 44.353 50.1893 44.2239L48.1461 42.9954C48.0731 42.9408 47.9993 42.9141 47.9245 42.9151C47.8534 42.9188 47.7947 42.9518 47.7483 43.0138C47.6774 43.1087 47.6438 43.2259 47.6477 43.3653C47.6552 43.5075 47.6915 43.6569 47.7564 43.8136C47.8278 43.9693 47.9251 44.1246 48.0484 44.2793C48.1753 44.4368 48.321 44.577 48.4852 44.6997C48.6422 44.8171 48.8137 44.9225 48.9998 45.0161C49.1923 45.1088 49.3906 45.1859 49.5949 45.2476C49.8028 45.3119 50.0134 45.3613 50.2268 45.3956C50.4428 45.4262 50.658 45.4391 50.8721 45.4342ZM50.7071 43.1088C50.77 43.1388 50.8366 43.1487 50.9067 43.1386C50.9796 43.1248 51.0393 43.0869 51.0856 43.0248C51.1266 42.9701 51.1447 42.904 51.14 42.8265C51.1353 42.749 51.112 42.6661 51.0699 42.5778C51.0305 42.4858 50.9734 42.3947 50.8985 42.3046C50.8237 42.2145 50.7351 42.1313 50.6329 42.0549C50.4832 41.943 50.3136 41.8503 50.1239 41.7768C49.9342 41.7033 49.7481 41.6552 49.5658 41.6328C49.3862 41.6066 49.2235 41.6073 49.0777 41.6349C48.9347 41.6588 48.8318 41.7128 48.769 41.7967C48.7063 41.8807 48.726 41.9609 48.8282 42.0373C48.8902 42.0836 48.9961 42.1514 49.1457 42.2405C49.2953 42.3295 49.4609 42.4277 49.6425 42.535C49.8267 42.6386 50.0142 42.7417 50.2049 42.8444C50.3955 42.9471 50.5629 43.0352 50.7071 43.1088ZM57.1382 45.6032C57.0032 45.5022 56.8573 45.45 56.7005 45.4466C56.5464 45.4396 56.3852 45.4727 56.2167 45.5459C56.0509 45.6154 55.8802 45.7182 55.7045 45.8543C55.5315 45.9867 55.3554 46.1424 55.1761 46.3214C54.9969 46.5003 54.8199 46.6952 54.6452 46.906C54.4706 47.1168 54.3 47.3336 54.1336 47.5563C53.9153 47.8483 53.7107 48.1448 53.5198 48.4459C53.3352 48.7461 53.1529 49.0166 52.9728 49.2575C52.8555 49.4145 52.7057 49.4931 52.5234 49.4934C52.3384 49.4974 52.1382 49.4188 51.9228 49.2579C51.8827 49.2279 51.8398 49.1901 51.7941 49.1446C51.7485 49.0991 51.7101 49.0477 51.6791 48.9903C51.6516 48.9356 51.6347 48.8746 51.6282 48.8072C51.6226 48.7461 51.6426 48.6814 51.688 48.6129C51.8953 48.2672 52.0934 47.9032 52.2823 47.521C52.4713 47.1388 52.6425 46.7461 52.7959 46.343C52.9556 45.9389 53.0926 45.5236 53.2068 45.0968C53.3246 44.6728 53.4168 44.2411 53.4836 43.8016C53.4953 43.7251 53.5079 43.6548 53.5215 43.591C53.5387 43.5299 53.5637 43.4775 53.5965 43.4337C53.6374 43.3789 53.7048 43.3383 53.7986 43.3117C53.8988 43.2842 54.0059 43.2703 54.1198 43.2701C54.2374 43.2727 54.3523 43.2903 54.4644 43.3229C54.583 43.3546 54.6842 43.4018 54.7682 43.4646C54.9069 43.5683 54.9569 43.7564 54.9181 44.029C54.8821 44.2979 54.7528 44.6764 54.5303 45.1644C54.494 45.251 54.4704 45.3131 54.4595 45.3505C54.4486 45.3878 54.4523 45.4134 54.4706 45.427C54.5107 45.457 54.5827 45.4141 54.6864 45.2981C54.9894 44.9841 55.2866 44.7425 55.578 44.5735C55.8721 44.4007 56.1577 44.2927 56.4347 44.2494C56.7181 44.2052 56.9906 44.2212 57.2523 44.2973C57.5177 44.3762 57.7745 44.5084 58.0227 44.6939C58.1651 44.8003 58.2997 44.9209 58.4266 45.0556C58.5535 45.1903 58.6563 45.3268 58.7349 45.4652C58.8135 45.6037 58.862 45.7366 58.8805 45.8642C58.8989 45.9918 58.874 46.1012 58.8058 46.1925C58.7567 46.2582 58.6834 46.3257 58.586 46.3952C58.495 46.4637 58.3962 46.5235 58.2896 46.5747C58.1858 46.6223 58.0828 46.6535 57.9808 46.6682C57.8851 46.682 57.8081 46.6671 57.7497 46.6235C57.684 46.5744 57.6337 46.5084 57.5989 46.4255C57.5669 46.3389 57.5308 46.2465 57.4905 46.1481C57.4539 46.0525 57.4091 45.9564 57.356 45.8598C57.3094 45.7624 57.2368 45.6768 57.1382 45.6032ZM60.6402 52.7356C60.8143 52.7235 60.9524 52.7556 61.0546 52.832C61.113 52.8757 61.155 52.9298 61.1806 52.9945C61.2063 53.0592 61.2251 53.1444 61.2371 53.2501C61.2291 53.375 61.2156 53.473 61.1966 53.5441C61.1839 53.6143 61.1585 53.6749 61.1203 53.726C61.0384 53.8356 60.9059 53.8987 60.7227 53.9154C60.4384 53.9304 60.1504 53.9199 59.8586 53.8839C59.5696 53.8443 59.2838 53.7814 59.0011 53.6953C58.7184 53.6092 58.4434 53.4975 58.1761 53.3603C57.9061 53.2267 57.6543 53.0727 57.4207 52.898C57.125 52.677 56.8763 52.4313 56.6744 52.161C56.4698 51.8942 56.3171 51.6151 56.2164 51.3236C56.1193 51.0348 56.0737 50.7419 56.0796 50.4447C56.0883 50.1439 56.1548 49.8494 56.2792 49.5612C56.3227 49.4344 56.3408 49.3455 56.3335 49.2945C56.3325 49.2426 56.3009 49.1934 56.2389 49.147C56.1038 49.046 56.0243 48.9354 56.0005 48.8152C55.9766 48.6949 56.011 48.5727 56.1038 48.4486C56.142 48.3975 56.1702 48.3674 56.1884 48.3582L56.2812 48.2569C56.3977 48.1391 56.5033 48.0701 56.598 48.0499C56.6965 48.0325 56.8022 48.066 56.9154 48.1506L56.9975 48.212C57.1508 48.3266 57.3117 48.3359 57.4802 48.2399C57.7816 48.0726 58.0977 47.9504 58.4284 47.8734C58.7592 47.7963 59.0886 47.7666 59.4168 47.7843C59.7476 47.7983 60.0672 47.8579 60.3755 47.9632C60.6901 48.0675 60.977 48.2165 61.2361 48.4102C61.5063 48.6121 61.7281 48.8406 61.9017 49.0955C62.0817 49.3495 62.2074 49.6113 62.2789 49.881C62.3505 50.1507 62.3659 50.4154 62.3253 50.6753C62.2884 50.9378 62.1894 51.1768 62.0284 51.3922C61.9166 51.5418 61.7851 51.6569 61.6339 51.7373C61.4827 51.8178 61.3169 51.8645 61.1365 51.8776C60.9587 51.887 60.7696 51.8622 60.569 51.8033C60.372 51.7471 60.1681 51.6545 59.9574 51.5254L57.9142 50.2968C57.8412 50.2423 57.7673 50.2155 57.6926 50.2165C57.6215 50.2203 57.5627 50.2532 57.5164 50.3153C57.4454 50.4102 57.4119 50.5273 57.4157 50.6668C57.4233 50.809 57.4595 50.9584 57.5245 51.115C57.5958 51.2708 57.6931 51.426 57.8164 51.5808C57.9434 51.7383 58.089 51.8784 58.2533 52.0012C58.4102 52.1185 58.5817 52.224 58.7678 52.3175C58.9603 52.4102 59.1587 52.4873 59.3629 52.549C59.5708 52.6134 59.7815 52.6627 59.9948 52.697C60.2109 52.7276 60.426 52.7405 60.6402 52.7356ZM60.4751 50.4103C60.538 50.4403 60.6046 50.4502 60.6748 50.44C60.7477 50.4263 60.8073 50.3883 60.8537 50.3263C60.8946 50.2715 60.9127 50.2054 60.908 50.1279C60.9034 50.0505 60.88 49.9676 60.8379 49.8792C60.7986 49.7872 60.7415 49.6962 60.6666 49.6061C60.5917 49.516 60.5031 49.4327 60.4009 49.3563C60.2513 49.2444 60.0816 49.1517 59.8919 49.0782C59.7022 49.0047 59.5162 48.9567 59.3339 48.9342C59.1543 48.9081 58.9916 48.9088 58.8458 48.9364C58.7027 48.9603 58.5998 49.0142 58.537 49.0982C58.4743 49.1821 58.494 49.2623 58.5962 49.3387C58.6583 49.3851 58.7641 49.4528 58.9137 49.5419C59.0634 49.631 59.229 49.7292 59.4105 49.8364C59.5948 49.94 59.7823 50.0432 59.9729 50.1459C60.1636 50.2486 60.331 50.3367 60.4751 50.4103Z" fill="white"/>
</svg>
