<svg width="913" height="189" viewBox="0 0 913 189" fill="none" xmlns="http://www.w3.org/2000/svg">
<g clip-path="url(#clip0_3_46)" filter="url(#filter0_d_3_46)">
<rect width="350" height="80" transform="translate(0 85.2409) rotate(-14.0959)" fill="#181818"/>
<path d="M102.465 102.102L98.0439 103.213L97.5958 101.428L102.017 100.318C102.873 100.103 103.532 99.7923 103.994 99.3864C104.456 98.9804 104.748 98.5045 104.868 97.9587C104.997 97.4109 104.983 96.8264 104.827 96.2051C104.684 95.6368 104.425 95.134 104.049 94.6967C103.681 94.2574 103.194 93.9529 102.587 93.783C101.979 93.6055 101.247 93.6243 100.39 93.8393L96.4805 94.8211L100.185 109.574L97.9914 110.125L93.8359 93.5761L99.9394 92.0435C101.19 91.7295 102.301 91.68 103.273 91.895C104.245 92.11 105.051 92.5441 105.69 93.1971C106.328 93.8426 106.769 94.654 107.015 95.6315C107.281 96.6923 107.285 97.6539 107.026 98.5163C106.767 99.3787 106.256 100.115 105.491 100.726C104.724 101.33 103.715 101.788 102.465 102.102ZM111.858 95.6236L114.461 105.989L112.358 106.517L109.27 94.2194L111.316 93.7057L111.858 95.6236ZM115.197 92.6586L115.677 94.6163C115.493 94.6222 115.32 94.6413 115.159 94.6737C115.004 94.6966 114.828 94.7328 114.631 94.7823C114.146 94.904 113.737 95.0873 113.404 95.3321C113.07 95.5769 112.809 95.868 112.62 96.2055C112.431 96.543 112.308 96.9201 112.252 97.3371C112.201 97.7445 112.209 98.1775 112.276 98.6359L111.77 99.1253C111.584 98.3827 111.481 97.6676 111.461 96.9798C111.449 96.2901 111.536 95.6562 111.721 95.0781C111.904 94.4924 112.199 93.9994 112.606 93.5992C113.019 93.1895 113.558 92.9009 114.225 92.7335C114.377 92.6954 114.556 92.6706 114.762 92.659C114.967 92.6398 115.112 92.6397 115.197 92.6586ZM125.179 103.54C124.323 103.755 123.51 103.806 122.74 103.693C121.977 103.57 121.278 103.307 120.645 102.902C120.019 102.495 119.482 101.961 119.034 101.301C118.587 100.64 118.254 99.8774 118.037 99.0136L117.917 98.5363C117.666 97.5361 117.591 96.6086 117.69 95.754C117.788 94.8917 118.022 94.1241 118.393 93.451C118.763 92.778 119.235 92.2204 119.809 91.7783C120.383 91.3363 121.014 91.0286 121.704 90.8555C122.583 90.6348 123.379 90.5961 124.091 90.7393C124.811 90.8807 125.445 91.1728 125.991 91.6156C126.535 92.0508 126.998 92.6112 127.379 93.2967C127.759 93.9747 128.057 94.7456 128.274 95.6094L128.511 96.5527L119.328 98.8588L118.897 97.1426L125.978 95.3645L125.938 95.2054C125.77 94.6674 125.523 94.1655 125.197 93.6998C124.878 93.2321 124.469 92.8839 123.968 92.6551C123.468 92.4264 122.857 92.4024 122.138 92.5831C121.66 92.703 121.246 92.9156 120.896 93.2211C120.544 93.5189 120.274 93.901 120.085 94.3673C119.896 94.8336 119.793 95.3709 119.776 95.9792C119.76 96.5874 119.845 97.2628 120.032 98.0054L120.151 98.4828C120.298 99.0662 120.515 99.5956 120.804 100.071C121.098 100.537 121.449 100.924 121.857 101.232C122.272 101.539 122.731 101.746 123.233 101.853C123.743 101.959 124.286 101.939 124.862 101.795C125.604 101.608 126.195 101.299 126.634 100.866C127.073 100.434 127.422 99.9153 127.681 99.3106L129.208 100.002C129.044 100.471 128.803 100.938 128.485 101.404C128.167 101.871 127.737 102.293 127.196 102.671C126.662 103.046 125.99 103.336 125.179 103.54ZM131.979 91.1148L134.453 100.969L132.339 101.5L129.251 89.202L131.251 88.6997L131.979 91.1148ZM132.36 94.4625L131.374 94.6739C131.171 93.8309 131.085 93.0267 131.119 92.2611C131.15 91.488 131.308 90.7839 131.591 90.1489C131.875 89.5138 132.291 88.9743 132.84 88.5303C133.387 88.0788 134.07 87.7503 134.888 87.5448C135.464 87.4002 136.015 87.3504 136.542 87.3953C137.067 87.4326 137.551 87.5809 137.995 87.84C138.439 88.0991 138.828 88.4767 139.162 88.9728C139.496 89.4689 139.76 90.1034 139.954 90.8763L142.011 99.0711L139.909 99.5991L137.877 91.5066C137.715 90.8625 137.476 90.3748 137.159 90.0436C136.85 89.7104 136.476 89.5062 136.038 89.4308C135.599 89.3479 135.114 89.3731 134.583 89.5062C133.962 89.6623 133.471 89.9025 133.109 90.2269C132.747 90.5513 132.49 90.9381 132.337 91.3873C132.184 91.8365 132.114 92.3255 132.125 92.8541C132.143 93.3733 132.221 93.9094 132.36 94.4625ZM140.037 91.3025L138.736 92.0883C138.574 91.4121 138.521 90.7366 138.577 90.062C138.641 89.3855 138.817 88.7534 139.104 88.1657C139.399 87.5761 139.814 87.065 140.35 86.6324C140.884 86.1923 141.541 85.8742 142.322 85.6783C142.981 85.5127 143.586 85.4533 144.138 85.5001C144.697 85.545 145.196 85.7056 145.636 85.9818C146.081 86.2485 146.466 86.6393 146.788 87.1544C147.111 87.6695 147.369 88.3134 147.563 89.0863L149.593 97.1674L147.478 97.6983L145.444 89.5944C145.27 88.9049 145.026 88.3983 144.712 88.0746C144.402 87.7414 144.032 87.5485 143.6 87.4959C143.173 87.4339 142.691 87.4704 142.153 87.6055C141.691 87.7215 141.302 87.9038 140.985 88.1524C140.669 88.4009 140.425 88.6958 140.253 89.0371C140.079 89.3707 139.972 89.7318 139.933 90.1203C139.901 90.5069 139.936 90.9009 140.037 91.3025ZM151.971 83.4968L155.06 95.7947L152.945 96.3255L149.857 84.0276L151.971 83.4968ZM148.879 80.8056C148.794 80.4646 148.824 80.151 148.969 79.8647C149.122 79.5765 149.403 79.3811 149.813 79.2783C150.214 79.1775 150.551 79.2179 150.822 79.3995C151.101 79.5792 151.283 79.8395 151.368 80.1805C151.45 80.5063 151.411 80.8143 151.25 81.1044C151.095 81.385 150.816 81.5757 150.415 81.6765C150.006 81.7793 149.666 81.7436 149.397 81.5696C149.134 81.386 148.961 81.1314 148.879 80.8056ZM163.596 93.8928C162.739 94.1079 161.927 94.1589 161.157 94.046C160.393 93.9237 159.695 93.6601 159.062 93.2552C158.436 92.8485 157.899 92.3147 157.451 91.6539C157.003 90.9931 156.671 90.2308 156.454 89.3669L156.334 88.8896C156.083 87.8894 156.007 86.962 156.107 86.1073C156.204 85.245 156.439 84.4774 156.809 83.8044C157.18 83.1313 157.652 82.5738 158.226 82.1317C158.799 81.6896 159.431 81.382 160.121 81.2088C161 80.9881 161.795 80.9494 162.508 81.0926C163.228 81.234 163.861 81.5261 164.407 81.9689C164.952 82.4041 165.415 82.9645 165.796 83.6501C166.176 84.328 166.474 85.0989 166.691 85.9627L166.928 86.9061L157.744 89.2121L157.313 87.4959L164.394 85.7178L164.354 85.5587C164.187 85.0207 163.94 84.5189 163.614 84.0531C163.295 83.5854 162.885 83.2372 162.385 83.0084C161.884 82.7797 161.274 82.7557 160.554 82.9364C160.077 83.0563 159.663 83.2689 159.313 83.5744C158.961 83.8722 158.69 84.2543 158.501 84.7206C158.312 85.187 158.21 85.7242 158.193 86.3325C158.177 86.9407 158.262 87.6162 158.448 88.3587L158.568 88.8361C158.715 89.4195 158.932 89.9489 159.221 90.4242C159.515 90.89 159.866 91.2772 160.273 91.5856C160.689 91.8921 161.148 92.0991 161.65 92.2066C162.16 92.3122 162.702 92.2927 163.278 92.1481C164.021 91.9616 164.612 91.6521 165.051 91.2197C165.49 90.7872 165.839 90.2686 166.098 89.6639L167.625 90.3558C167.461 90.824 167.22 91.2913 166.902 91.7577C166.584 92.2242 166.154 92.6462 165.613 93.0239C165.079 93.3996 164.406 93.6893 163.596 93.8928ZM170.278 80.9538L172.881 91.3195L170.779 91.8475L167.69 79.5496L169.736 79.0359L170.278 80.9538ZM173.618 77.9887L174.097 79.9465C173.913 79.9524 173.741 79.9715 173.58 80.0039C173.425 80.0268 173.248 80.063 173.051 80.1125C172.567 80.2342 172.157 80.4175 171.824 80.6623C171.491 80.9071 171.23 81.1982 171.041 81.5357C170.852 81.8731 170.729 82.2503 170.672 82.6673C170.622 83.0747 170.63 83.5076 170.696 83.9661L170.191 84.4555C170.005 83.7129 169.902 82.9978 169.882 82.31C169.87 81.6203 169.956 80.9864 170.141 80.4082C170.325 79.8226 170.62 79.3296 171.027 78.9294C171.439 78.5197 171.979 78.2311 172.646 78.0637C172.797 78.0256 172.976 78.0008 173.183 77.9892C173.387 77.97 173.532 77.9699 173.618 77.9887ZM183.6 88.8697C182.743 89.0847 181.93 89.1358 181.161 89.0229C180.397 88.9005 179.699 88.6369 179.066 88.2321C178.44 87.8254 177.903 87.2916 177.455 86.6308C177.007 85.9699 176.675 85.2076 176.458 84.3438L176.338 83.8665C176.087 82.8663 176.011 81.9388 176.111 81.0842C176.208 80.2219 176.443 79.4543 176.813 78.7812C177.184 78.1082 177.656 77.5506 178.23 77.1085C178.803 76.6665 179.435 76.3588 180.125 76.1857C181.003 75.965 181.799 75.9263 182.512 76.0695C183.232 76.2109 183.865 76.503 184.411 76.9458C184.956 77.381 185.419 77.9414 185.8 78.6269C186.18 79.3049 186.478 80.0758 186.695 80.9396L186.932 81.8829L177.748 84.189L177.317 82.4728L184.398 80.6947L184.358 80.5356C184.191 79.9976 183.944 79.4957 183.618 79.03C183.299 78.5623 182.889 78.214 182.389 77.9853C181.888 77.7565 181.278 77.7325 180.558 77.9133C180.081 78.0332 179.667 78.2458 179.317 78.5513C178.965 78.8491 178.694 79.2312 178.505 79.6975C178.316 80.1638 178.214 80.7011 178.197 81.3094C178.181 81.9176 178.266 82.593 178.452 83.3356L178.572 83.813C178.719 84.3964 178.936 84.9258 179.225 85.4011C179.519 85.8669 179.87 86.254 180.277 86.5625C180.693 86.869 181.151 87.076 181.654 87.1835C182.164 87.2891 182.706 87.2695 183.282 87.1249C184.025 86.9385 184.616 86.629 185.055 86.1965C185.494 85.7641 185.843 85.2455 186.102 84.6407L187.629 85.3327C187.465 85.8008 187.224 86.2682 186.906 86.7346C186.588 87.2011 186.158 87.6231 185.617 88.0007C185.083 88.3765 184.41 88.6661 183.6 88.8697ZM201.348 77.2721L196.927 78.3823L196.479 76.5978L200.9 75.4876C201.757 75.2726 202.416 74.9621 202.878 74.5562C203.34 74.1502 203.631 73.6743 203.752 73.1284C203.88 72.5807 203.866 71.9962 203.71 71.3748C203.567 70.8066 203.308 70.3037 202.932 69.8664C202.564 69.4272 202.077 69.1227 201.471 68.9528C200.862 68.7753 200.13 68.7941 199.274 69.0091L195.364 69.9908L199.068 84.7438L196.875 85.2946L192.719 68.7459L198.823 67.2132C200.073 66.8993 201.184 66.8498 202.156 67.0648C203.129 67.2798 203.934 67.7138 204.574 68.3669C205.211 69.0123 205.652 69.8238 205.898 70.8013C206.164 71.8621 206.168 72.8237 205.909 73.6861C205.651 74.5485 205.139 75.2852 204.374 75.8961C203.607 76.4995 202.599 76.9581 201.348 77.2721ZM210.741 70.7934L213.344 81.1591L211.241 81.6871L208.153 69.3892L210.199 68.8755L210.741 70.7934ZM214.08 67.8283L214.56 69.7861C214.376 69.792 214.204 69.8111 214.043 69.8435C213.887 69.8664 213.711 69.9026 213.514 69.9521C213.029 70.0738 212.62 70.2571 212.287 70.5019C211.954 70.7467 211.692 71.0378 211.503 71.3753C211.314 71.7127 211.191 72.0899 211.135 72.5068C211.084 72.9143 211.092 73.3472 211.159 73.8057L210.654 74.2951C210.467 73.5525 210.364 72.8373 210.344 72.1495C210.332 71.4598 210.419 70.8259 210.604 70.2478C210.787 69.6621 211.082 69.1692 211.489 68.769C211.902 68.3593 212.442 68.0707 213.108 67.9032C213.26 67.8652 213.439 67.8404 213.645 67.8288C213.85 67.8096 213.995 67.8095 214.08 67.8283ZM216.835 73.8908L216.769 73.6293C216.547 72.7428 216.469 71.8883 216.536 71.0659C216.602 70.2359 216.807 69.4797 217.151 68.7972C217.493 68.1071 217.97 67.5202 218.582 67.0364C219.191 66.545 219.924 66.1918 220.78 65.9768C221.644 65.7599 222.461 65.7239 223.23 65.869C224.005 66.0047 224.707 66.2957 225.334 66.7423C225.968 67.1793 226.509 67.7481 226.959 68.4487C227.407 69.1418 227.742 69.9316 227.965 70.8181L228.03 71.0795C228.253 71.9661 228.331 72.8205 228.263 73.643C228.196 74.4654 227.987 75.2226 227.638 75.9145C227.293 76.597 226.817 77.184 226.207 77.6754C225.603 78.1573 224.869 78.5067 224.005 78.7236C223.141 78.9405 222.326 78.9802 221.558 78.8427C220.789 78.6976 220.087 78.4065 219.454 77.9694C218.826 77.5229 218.289 76.9531 217.841 76.2601C217.393 75.5671 217.058 74.7773 216.835 73.8908ZM218.872 73.1013L218.938 73.3628C219.092 73.9765 219.309 74.5381 219.59 75.0475C219.869 75.5493 220.205 75.9725 220.598 76.3169C220.998 76.6595 221.448 76.8968 221.949 77.0289C222.447 77.1535 222.988 77.1425 223.571 76.996C224.147 76.8514 224.622 76.6074 224.995 76.264C225.373 75.9112 225.654 75.4903 225.837 75.0012C226.021 74.5122 226.117 73.9806 226.126 73.4064C226.14 72.8228 226.07 72.2241 225.916 71.6104L225.851 71.349C225.699 70.7428 225.479 70.1897 225.192 69.6898C224.911 69.1804 224.571 68.7544 224.171 68.4119C223.776 68.0598 223.329 67.8178 222.828 67.6856C222.336 67.5516 221.798 67.5579 221.214 67.7044C220.638 67.849 220.161 68.0977 219.782 68.4505C219.411 68.8015 219.131 69.2262 218.942 69.7247C218.759 70.2138 218.664 70.7491 218.657 71.3309C218.648 71.905 218.72 72.4952 218.872 73.1013Z" fill="white"/>
</g>
<g clip-path="url(#clip1_3_46)">
<path d="M46.0711 112.143C46.0413 112.622 45.8909 113.086 45.6339 113.492C45.3768 113.898 45.0215 114.232 44.6008 114.463C43.4364 115.137 42.1462 115.565 40.8101 115.72C40.5478 115.785 40.4524 115.809 40.3566 115.428L38.8958 109.61C38.8419 109.396 38.794 109.205 39.0801 109.133C40.2078 108.833 41.3504 108.605 42.5077 108.45C43.0023 108.386 43.5051 108.438 43.9757 108.603C44.4464 108.768 44.8719 109.041 45.2182 109.4C45.5645 109.759 45.822 110.194 45.9701 110.67C46.1182 111.146 46.1528 111.651 46.0711 112.143Z" fill="#9747FF"/>
<path d="M55.8049 86.6077L31.9618 92.5949C28.8 93.3888 26.0831 95.4063 24.4087 98.2034C22.7344 101.001 22.2398 104.348 23.0338 107.51L29.0209 131.353C29.8149 134.515 31.8323 137.232 34.6295 138.906C37.4266 140.58 40.7743 141.075 43.9361 140.281L67.7792 134.294C70.941 133.5 73.6579 131.483 75.3322 128.685C77.0065 125.888 77.5011 122.541 76.7072 119.379L70.72 95.5357C69.9261 92.3739 67.9086 89.657 65.1115 87.9827C62.3144 86.3083 58.9667 85.8138 55.8049 86.6077ZM49.8779 114.887C49.0015 116.574 47.5076 117.857 45.708 118.469C44.5518 118.911 43.3237 119.068 42.1795 119.558L41.3211 119.773L42.8598 125.901C42.9795 126.378 42.9975 126.449 42.4968 126.575L39.1111 127.425C38.7534 127.515 38.5804 127.432 38.4846 127.05L33.4255 106.903C33.3477 106.593 33.3058 106.426 33.7349 106.318L40.3156 104.666C41.8701 104.221 43.5105 104.166 45.0913 104.506C46.3206 104.75 47.456 105.337 48.3671 106.197C49.2782 107.058 49.928 108.158 50.2419 109.372C50.5542 110.269 50.6829 111.219 50.6204 112.166C50.5579 113.114 50.3054 114.039 49.8779 114.887ZM63.2684 108.255C63.3522 108.589 63.1794 108.708 62.8933 108.78C61.702 109.043 60.5779 109.55 59.5917 110.268L59.3177 110.489C59.0363 110.663 58.8244 110.93 58.7181 111.243C58.6118 111.557 58.6178 111.897 58.7352 112.207L61.0223 121.315C61.16 121.863 61.166 121.887 60.6176 122.025L57.1603 122.893C56.6596 123.019 56.6119 123.031 56.4742 122.482L53.3669 110.108C53.1394 109.202 52.9119 108.296 52.5651 107.42C52.4873 107.11 52.4514 106.967 52.8627 106.889L56.0338 106.092C56.108 106.059 56.1884 106.042 56.2697 106.043C56.3509 106.044 56.4311 106.062 56.5047 106.096C56.5783 106.131 56.6436 106.181 56.6961 106.243C56.7487 106.305 56.7873 106.377 56.8093 106.455C56.9291 106.932 57.2217 107.391 57.395 107.778C57.9846 107.098 58.5383 106.376 59.1875 105.731C59.9269 105.021 60.8422 104.52 61.8393 104.28C62.1254 104.208 62.2684 104.172 62.3702 104.577L63.2684 108.255Z" fill="#9747FF"/>
</g>
<g clip-path="url(#clip2_3_46)">
<path d="M308.897 40.133L316.078 44.432L320.355 37.2873C320.448 37.1214 320.573 36.9758 320.723 36.8593C320.873 36.7429 321.045 36.6579 321.228 36.6096C321.623 36.5105 322.04 36.5722 322.389 36.7811C322.738 36.99 322.99 37.3289 323.089 37.7233C323.138 37.9048 323.15 38.0944 323.123 38.2805C323.097 38.4666 323.032 38.6453 322.934 38.8057L318.583 45.969L325.821 50.3014C326.126 50.4797 326.351 50.7683 326.45 51.1078C326.549 51.5022 326.487 51.9198 326.278 52.2687C326.07 52.6177 325.731 52.8693 325.336 52.9684C325.149 53.0238 324.952 53.0397 324.758 53.0149C324.564 52.9901 324.377 52.9253 324.209 52.8245L317.102 48.5068L312.814 55.6702C312.721 55.8315 312.597 55.9728 312.449 56.0859C312.301 56.1991 312.132 56.2818 311.952 56.3293C311.557 56.4283 311.14 56.3666 310.791 56.1578C310.442 55.9489 310.19 55.61 310.091 55.2156C310.042 55.0341 310.03 54.8445 310.057 54.6584C310.084 54.4723 310.148 54.2935 310.246 54.1332L314.597 46.9698L307.36 42.6374C307.054 42.4592 306.829 42.1706 306.73 41.8311C306.631 41.4367 306.693 41.0191 306.902 40.6701C307.111 40.3212 307.449 40.0695 307.844 39.9705C308.202 39.8853 308.58 39.9437 308.897 40.133Z" fill="white"/>
</g>
<g filter="url(#filter1_d_3_46)">
<rect width="350" height="80" transform="translate(276.972 66) rotate(4.99975)" fill="#181818"/>
<path d="M368.283 115.455L363.742 115.057L363.902 113.224L368.443 113.622C369.323 113.699 370.047 113.621 370.616 113.388C371.186 113.156 371.617 112.801 371.909 112.325C372.21 111.85 372.388 111.293 372.444 110.654C372.495 110.071 372.414 109.511 372.202 108.975C371.998 108.439 371.637 107.992 371.12 107.633C370.603 107.266 369.905 107.044 369.025 106.967L365.009 106.616L363.684 121.769L361.431 121.572L362.918 104.575L369.187 105.123C370.471 105.235 371.537 105.552 372.386 106.073C373.234 106.595 373.853 107.268 374.244 108.095C374.635 108.913 374.787 109.824 374.699 110.828C374.603 111.918 374.293 112.828 373.766 113.558C373.239 114.288 372.515 114.817 371.592 115.144C370.67 115.463 369.567 115.567 368.283 115.455ZM379.915 105.12L378.347 123.052L376.187 122.863L377.756 104.932L379.915 105.12ZM378.427 116.213L377.531 116.099C377.615 115.236 377.813 114.449 378.126 113.74C378.44 113.022 378.846 112.411 379.345 111.905C379.844 111.4 380.418 111.027 381.067 110.785C381.724 110.537 382.433 110.446 383.196 110.513C383.819 110.567 384.372 110.702 384.855 110.917C385.339 111.124 385.74 111.425 386.058 111.822C386.384 112.219 386.615 112.718 386.75 113.318C386.887 113.91 386.919 114.622 386.846 115.455L386.122 123.732L383.95 123.542L384.676 115.242C384.734 114.58 384.683 114.043 384.523 113.629C384.364 113.207 384.106 112.89 383.748 112.679C383.391 112.459 382.94 112.326 382.395 112.278C381.858 112.231 381.358 112.301 380.894 112.488C380.439 112.675 380.034 112.954 379.68 113.323C379.334 113.692 379.049 114.126 378.825 114.624C378.61 115.115 378.477 115.645 378.427 116.213ZM389.324 117.789L389.347 117.521C389.427 116.61 389.633 115.777 389.966 115.022C390.299 114.259 390.74 113.612 391.288 113.079C391.838 112.539 392.48 112.141 393.216 111.884C393.953 111.619 394.761 111.525 395.641 111.602C396.528 111.679 397.311 111.912 397.991 112.301C398.679 112.683 399.247 113.187 399.694 113.815C400.149 114.435 400.475 115.15 400.671 115.959C400.867 116.76 400.926 117.616 400.846 118.527L400.823 118.795C400.743 119.706 400.537 120.539 400.204 121.294C399.871 122.049 399.427 122.696 398.87 123.236C398.321 123.768 397.678 124.167 396.942 124.432C396.213 124.69 395.405 124.78 394.518 124.702C393.631 124.624 392.847 124.395 392.167 124.014C391.487 123.625 390.92 123.121 390.464 122.5C390.017 121.873 389.695 121.159 389.499 120.357C389.302 119.556 389.244 118.7 389.324 117.789ZM391.507 117.71L391.483 117.978C391.428 118.609 391.45 119.211 391.549 119.784C391.648 120.349 391.827 120.859 392.086 121.313C392.352 121.768 392.699 122.139 393.129 122.428C393.559 122.709 394.074 122.875 394.673 122.928C395.265 122.979 395.793 122.904 396.258 122.701C396.731 122.492 397.134 122.186 397.467 121.784C397.801 121.382 398.065 120.911 398.261 120.371C398.466 119.824 398.596 119.236 398.651 118.605L398.675 118.337C398.729 117.714 398.703 117.12 398.595 116.554C398.497 115.98 398.314 115.466 398.048 115.012C397.79 114.55 397.447 114.175 397.017 113.886C396.595 113.599 396.085 113.428 395.486 113.376C394.894 113.324 394.362 113.403 393.889 113.613C393.423 113.823 393.02 114.133 392.678 114.542C392.345 114.944 392.08 115.419 391.883 115.966C391.687 116.506 391.561 117.087 391.507 117.71ZM409.384 113.039L409.239 114.697L402.41 114.099L402.555 112.442L409.384 113.039ZM405.135 109.574L407.295 109.763L406.195 122.336C406.157 122.764 406.195 123.092 406.308 123.322C406.422 123.551 406.58 123.71 406.784 123.799C406.988 123.887 407.211 123.942 407.452 123.963C407.631 123.979 407.819 123.98 408.017 123.965C408.222 123.944 408.377 123.926 408.48 123.912L408.338 125.676C408.162 125.715 407.931 125.746 407.647 125.768C407.37 125.799 407.037 125.797 406.648 125.763C406.118 125.717 405.641 125.569 405.216 125.32C404.791 125.071 404.467 124.69 404.246 124.177C404.032 123.656 403.962 122.976 404.036 122.135L405.135 109.574ZM410.547 119.646L410.571 119.378C410.65 118.467 410.857 117.634 411.189 116.879C411.523 116.116 411.964 115.469 412.512 114.936C413.061 114.396 413.704 113.997 414.44 113.74C415.177 113.475 415.985 113.381 416.864 113.458C417.752 113.536 418.535 113.769 419.215 114.158C419.903 114.54 420.47 115.044 420.917 115.671C421.373 116.292 421.699 117.006 421.894 117.816C422.091 118.617 422.149 119.473 422.07 120.384L422.046 120.652C421.967 121.563 421.76 122.396 421.428 123.151C421.095 123.906 420.65 124.553 420.093 125.093C419.545 125.625 418.902 126.024 418.165 126.288C417.437 126.546 416.629 126.636 415.742 126.559C414.855 126.481 414.071 126.252 413.391 125.871C412.711 125.482 412.143 124.977 411.688 124.357C411.241 123.73 410.919 123.016 410.722 122.214C410.526 121.413 410.468 120.557 410.547 119.646ZM412.73 119.567L412.707 119.835C412.652 120.465 412.674 121.067 412.772 121.641C412.872 122.206 413.051 122.716 413.309 123.17C413.575 123.624 413.923 123.996 414.353 124.284C414.783 124.565 415.298 124.732 415.897 124.784C416.489 124.836 417.017 124.761 417.481 124.558C417.955 124.349 418.358 124.043 418.691 123.641C419.024 123.238 419.289 122.768 419.485 122.228C419.69 121.681 419.82 121.093 419.875 120.462L419.898 120.194C419.953 119.571 419.926 118.977 419.819 118.41C419.72 117.837 419.538 117.323 419.272 116.869C419.014 116.407 418.67 116.032 418.241 115.743C417.819 115.455 417.308 115.285 416.709 115.233C416.118 115.181 415.585 115.26 415.112 115.469C414.647 115.68 414.243 115.989 413.902 116.399C413.568 116.801 413.303 117.276 413.106 117.823C412.91 118.363 412.785 118.944 412.73 119.567ZM431.862 124.358C431.889 124.046 431.845 123.752 431.728 123.475C431.619 123.191 431.364 122.922 430.963 122.667C430.57 122.406 429.965 122.157 429.146 121.92C428.459 121.711 427.84 121.48 427.289 121.228C426.747 120.977 426.29 120.69 425.918 120.367C425.554 120.045 425.284 119.681 425.108 119.273C424.932 118.866 424.866 118.401 424.912 117.88C424.956 117.382 425.106 116.92 425.362 116.496C425.627 116.072 425.977 115.706 426.411 115.399C426.854 115.093 427.371 114.868 427.964 114.723C428.557 114.579 429.208 114.538 429.916 114.6C430.928 114.689 431.776 114.943 432.461 115.364C433.145 115.784 433.652 116.311 433.981 116.944C434.311 117.569 434.444 118.243 434.381 118.967L432.221 118.778C432.252 118.428 432.176 118.08 431.995 117.735C431.822 117.382 431.546 117.08 431.168 116.827C430.798 116.575 430.329 116.424 429.761 116.375C429.162 116.322 428.667 116.373 428.277 116.527C427.896 116.674 427.607 116.88 427.411 117.145C427.223 117.411 427.116 117.7 427.089 118.011C427.068 118.245 427.089 118.458 427.15 118.652C427.22 118.838 427.353 119.019 427.55 119.193C427.747 119.359 428.031 119.525 428.4 119.69C428.77 119.856 429.245 120.031 429.825 120.215C430.84 120.539 431.667 120.894 432.308 121.279C432.949 121.665 433.412 122.109 433.697 122.612C433.982 123.116 434.095 123.706 434.036 124.383C433.988 124.936 433.827 125.431 433.553 125.87C433.287 126.31 432.922 126.678 432.457 126.974C432 127.264 431.464 127.475 430.848 127.61C430.241 127.737 429.568 127.768 428.829 127.704C427.716 127.606 426.791 127.325 426.056 126.861C425.32 126.397 424.781 125.832 424.439 125.167C424.097 124.502 423.957 123.819 424.018 123.119L426.19 123.308C426.169 123.903 426.299 124.389 426.58 124.766C426.861 125.136 427.221 125.414 427.66 125.602C428.099 125.781 428.54 125.89 428.984 125.929C429.575 125.981 430.076 125.946 430.487 125.825C430.905 125.705 431.231 125.518 431.465 125.264C431.699 125.01 431.832 124.708 431.862 124.358ZM440.294 110.403L438.725 128.334L436.566 128.145L438.134 110.214L440.294 110.403ZM438.806 121.495L437.91 121.381C437.994 120.518 438.192 119.731 438.505 119.022C438.819 118.304 439.225 117.693 439.724 117.187C440.223 116.682 440.797 116.309 441.445 116.068C442.102 115.819 442.812 115.728 443.575 115.795C444.198 115.85 444.75 115.984 445.233 116.199C445.717 116.406 446.118 116.708 446.437 117.104C446.763 117.501 446.993 118 447.129 118.6C447.266 119.192 447.297 119.905 447.224 120.737L446.5 129.014L444.329 128.824L445.055 120.524C445.113 119.863 445.062 119.325 444.902 118.911C444.743 118.489 444.484 118.172 444.127 117.961C443.769 117.741 443.318 117.608 442.773 117.56C442.236 117.513 441.736 117.583 441.273 117.77C440.817 117.957 440.413 118.236 440.059 118.605C439.713 118.974 439.428 119.408 439.204 119.906C438.988 120.397 438.856 120.927 438.806 121.495ZM449.702 123.072L449.726 122.803C449.805 121.892 450.012 121.06 450.344 120.305C450.678 119.542 451.119 118.894 451.667 118.362C452.216 117.821 452.859 117.423 453.595 117.166C454.332 116.901 455.14 116.807 456.02 116.884C456.907 116.961 457.69 117.195 458.37 117.583C459.058 117.965 459.626 118.47 460.073 119.097C460.528 119.717 460.854 120.432 461.05 121.241C461.246 122.042 461.305 122.898 461.225 123.809L461.201 124.078C461.122 124.988 460.916 125.821 460.583 126.576C460.25 127.331 459.805 127.979 459.248 128.518C458.7 129.05 458.057 129.449 457.32 129.714C456.592 129.972 455.784 130.062 454.897 129.984C454.01 129.907 453.226 129.677 452.546 129.296C451.866 128.907 451.298 128.403 450.843 127.783C450.396 127.155 450.074 126.441 449.878 125.64C449.681 124.838 449.623 123.982 449.702 123.072ZM451.886 122.992L451.862 123.261C451.807 123.891 451.829 124.493 451.928 125.066C452.027 125.632 452.206 126.141 452.464 126.595C452.73 127.05 453.078 127.421 453.508 127.71C453.938 127.991 454.453 128.157 455.052 128.21C455.644 128.261 456.172 128.186 456.637 127.984C457.11 127.774 457.513 127.468 457.846 127.066C458.179 126.664 458.444 126.193 458.64 125.653C458.845 125.107 458.975 124.518 459.03 123.888L459.053 123.619C459.108 122.996 459.082 122.402 458.974 121.836C458.875 121.263 458.693 120.749 458.427 120.294C458.169 119.832 457.826 119.457 457.396 119.169C456.974 118.881 456.464 118.711 455.864 118.658C455.273 118.606 454.74 118.685 454.267 118.895C453.802 119.105 453.398 119.415 453.057 119.824C452.723 120.226 452.458 120.701 452.262 121.249C452.065 121.788 451.94 122.369 451.886 122.992ZM466.422 120.476L465.104 135.536L462.933 135.346L464.463 117.858L466.447 118.031L466.422 120.476ZM474.601 125.003L474.58 125.248C474.5 126.166 474.316 127.009 474.029 127.776C473.743 128.535 473.365 129.184 472.894 129.724C472.432 130.263 471.883 130.666 471.248 130.932C470.613 131.198 469.902 131.297 469.116 131.228C468.314 131.158 467.618 130.964 467.026 130.645C466.434 130.327 465.947 129.896 465.563 129.353C465.179 128.809 464.89 128.172 464.695 127.442C464.508 126.712 464.406 125.899 464.391 125.004L464.505 123.696C464.68 122.77 464.928 121.949 465.25 121.232C465.571 120.515 465.965 119.914 466.431 119.43C466.905 118.938 467.458 118.582 468.089 118.363C468.72 118.136 469.433 118.057 470.227 118.127C471.021 118.196 471.712 118.413 472.299 118.778C472.887 119.136 473.367 119.617 473.737 120.222C474.108 120.827 474.364 121.535 474.504 122.348C474.653 123.153 474.686 124.038 474.601 125.003ZM472.409 125.058L472.43 124.813C472.485 124.182 472.471 123.585 472.387 123.021C472.304 122.449 472.14 121.941 471.897 121.496C471.662 121.044 471.341 120.679 470.934 120.4C470.528 120.114 470.029 119.944 469.437 119.893C468.892 119.845 468.41 119.897 467.989 120.048C467.575 120.2 467.215 120.424 466.906 120.718C466.599 121.005 466.338 121.343 466.124 121.732C465.918 122.114 465.753 122.515 465.63 122.936L465.366 125.959C465.474 126.518 465.647 127.051 465.885 127.558C466.123 128.057 466.463 128.475 466.904 128.811C467.346 129.14 467.921 129.336 468.629 129.398C469.213 129.449 469.726 129.372 470.167 129.167C470.617 128.956 470.997 128.648 471.306 128.244C471.624 127.84 471.873 127.368 472.054 126.827C472.235 126.278 472.353 125.688 472.409 125.058Z" fill="white"/>
</g>
<g clip-path="url(#clip3_3_46)">
<path d="M311.707 106.493C311.522 106.937 311.228 107.326 310.853 107.625C310.477 107.925 310.032 108.124 309.559 108.206C308.238 108.461 306.879 108.443 305.566 108.152C305.296 108.129 305.198 108.12 305.233 107.728L305.755 101.753C305.775 101.532 305.792 101.337 306.086 101.362C307.249 101.448 308.404 101.606 309.548 101.838C310.036 101.939 310.494 102.153 310.885 102.463C311.276 102.773 311.589 103.17 311.799 103.623C312.008 104.075 312.109 104.57 312.094 105.069C312.078 105.567 311.945 106.055 311.707 106.493Z" fill="#9747FF"/>
<path d="M329.259 85.5479L304.769 83.4055C301.522 83.1214 298.294 84.139 295.797 86.2344C293.3 88.3299 291.737 91.3316 291.453 94.5791L289.311 119.069C289.027 122.316 290.044 125.544 292.14 128.041C294.235 130.538 297.237 132.101 300.484 132.385L324.974 134.528C328.222 134.812 331.449 133.794 333.946 131.699C336.444 129.603 338.006 126.601 338.29 123.354L340.433 98.8641C340.717 95.6165 339.699 92.3891 337.604 89.8919C335.508 87.3946 332.507 85.832 329.259 85.5479ZM314.407 110.332C313.027 111.64 311.195 112.363 309.295 112.353C308.057 112.393 306.846 112.139 305.604 112.227L304.722 112.15L304.172 118.444C304.129 118.934 304.122 119.007 303.608 118.962L300.131 118.658C299.763 118.626 299.627 118.491 299.661 118.099L301.472 97.4051C301.5 97.0867 301.515 96.9153 301.955 96.9539L308.715 97.5452C310.329 97.6331 311.897 98.1177 313.28 98.9563C314.361 99.5895 315.243 100.515 315.822 101.626C316.401 102.738 316.655 103.99 316.555 105.239C316.557 106.189 316.368 107.129 315.998 108.004C315.629 108.879 315.088 109.671 314.407 110.332ZM329.23 108.446C329.2 108.789 328.998 108.845 328.704 108.819C327.492 108.678 326.264 108.789 325.097 109.145L324.766 109.265C324.443 109.337 324.155 109.52 323.953 109.781C323.75 110.043 323.644 110.366 323.653 110.697L322.835 120.052C322.786 120.616 322.784 120.64 322.22 120.591L318.669 120.28C318.155 120.235 318.106 120.231 318.155 119.668L319.267 106.957C319.349 106.027 319.43 105.096 319.389 104.155C319.417 103.836 319.43 103.689 319.844 103.75L323.101 104.035C323.182 104.028 323.264 104.039 323.34 104.066C323.417 104.093 323.487 104.136 323.545 104.193C323.603 104.25 323.648 104.318 323.678 104.394C323.707 104.47 323.72 104.551 323.715 104.632C323.672 105.122 323.799 105.651 323.836 106.074C324.616 105.624 325.375 105.123 326.199 104.726C327.131 104.296 328.159 104.122 329.18 104.222C329.474 104.247 329.621 104.26 329.585 104.677L329.23 108.446Z" fill="#9747FF"/>
<g clip-path="url(#clip4_3_46)">
<path d="M294.414 78.3044L332.373 81.6252C338.128 82.1287 342.374 87.1886 341.871 92.944L338.679 129.434C338.175 135.189 333.115 139.435 327.36 138.931L289.401 135.61C283.645 135.107 279.4 130.047 279.903 124.292L283.095 87.8021C283.599 82.0467 288.659 77.8009 294.414 78.3044Z" fill="#001E36"/>
<path d="M303.792 93.8076C303.058 93.7433 302.323 93.6791 301.562 93.6375C300.8 93.5954 300.09 93.5332 299.426 93.5002C298.763 93.4666 298.151 93.4131 297.561 93.386C296.996 93.3611 296.604 93.3268 296.187 93.2904C296.016 93.2754 295.934 93.3668 295.919 93.5385L293.715 118.738C293.695 118.959 293.784 119.066 293.981 119.083L298.732 119.499C298.905 119.489 299.041 119.352 299.031 119.179L299.719 111.318C300.184 111.359 300.527 111.389 300.77 111.434C301.012 111.48 301.404 111.514 301.992 111.566C304 111.741 305.856 111.682 307.575 111.215C309.218 110.767 310.68 109.858 311.779 108.572C312.879 107.287 313.521 105.591 313.705 103.485C313.801 102.383 313.698 101.313 313.421 100.252C313.123 99.1698 312.596 98.1644 311.877 97.3035C311.025 96.3173 309.964 95.5331 308.771 95.008C307.444 94.3737 305.8 93.9833 303.792 93.8076ZM303.917 98.6791C304.788 98.772 305.624 98.9988 306.388 99.3895C307.075 99.7212 307.62 100.263 307.981 100.935C308.314 101.628 308.443 102.401 308.354 103.165C308.259 104.242 307.941 105.054 307.373 105.621C306.781 106.186 306.055 106.591 305.252 106.743C304.32 106.958 303.352 107.021 302.397 106.937L301.099 106.824C300.805 106.798 300.489 106.746 300.148 106.691L300.868 98.4629C301.042 98.453 301.387 98.4587 301.874 98.5264C302.342 98.5423 302.905 98.5915 303.542 98.6472C303.667 98.6552 303.793 98.6658 303.917 98.6791ZM324.347 101.726C322.608 101.574 321.139 101.717 319.937 102.204C318.841 102.602 317.866 103.306 317.169 104.232C316.551 105.091 316.169 106.069 316.076 107.122C315.98 107.987 316.098 108.862 316.421 109.67C316.807 110.533 317.381 111.3 318.101 111.914C319.114 112.745 320.231 113.44 321.424 113.982C322.583 114.552 323.359 114.99 323.723 115.342C324.087 115.695 324.255 116.031 324.225 116.374C324.187 116.814 323.881 117.207 323.474 117.344C323.014 117.526 322.342 117.591 321.411 117.509C320.432 117.424 319.463 117.215 318.553 116.889C317.506 116.557 316.516 116.063 315.622 115.424C315.553 115.368 315.481 115.337 315.403 115.38C315.326 115.422 315.293 115.518 315.286 115.592L314.914 119.853C314.872 120.047 314.979 120.229 315.142 120.341C315.904 120.782 316.721 121.119 317.572 121.344C318.655 121.661 319.748 121.855 320.874 121.953C322.637 122.108 324.131 121.967 325.376 121.558C326.516 121.213 327.538 120.538 328.309 119.618C329.035 118.711 329.468 117.604 329.549 116.445C329.65 115.572 329.532 114.689 329.207 113.873C328.814 112.999 328.213 112.256 327.45 111.671C326.332 110.825 325.119 110.114 323.835 109.553C323.265 109.257 322.709 108.936 322.166 108.593C321.863 108.394 321.589 108.147 321.392 107.859C321.262 107.65 321.183 107.421 321.203 107.201C321.222 106.98 321.317 106.742 321.456 106.557C321.649 106.327 321.933 106.179 322.258 106.133C322.734 106.052 323.255 106.023 323.742 106.09C324.673 106.171 325.568 106.373 326.458 106.649C327.276 106.893 328.036 107.231 328.736 107.687C328.829 107.744 328.952 107.755 329.177 107.726C329.217 107.701 329.252 107.667 329.277 107.626C329.302 107.585 329.317 107.539 329.321 107.491L329.67 103.5C329.679 103.401 329.662 103.301 329.647 103.201C329.606 103.099 329.517 102.993 329.421 102.96C328.77 102.624 328.079 102.373 327.364 102.212C326.371 101.978 325.363 101.816 324.347 101.726Z" fill="#31A8FF"/>
</g>
</g>
<path d="M583.628 124.428L589.008 130.84L595.387 125.488C595.529 125.361 595.695 125.265 595.874 125.204C596.054 125.143 596.245 125.119 596.434 125.133C596.839 125.169 597.214 125.364 597.475 125.675C597.736 125.987 597.863 126.389 597.828 126.794C597.815 126.982 597.764 127.165 597.678 127.332C597.592 127.499 597.473 127.647 597.327 127.766L590.872 133.112L596.294 139.574C596.525 139.842 596.643 140.189 596.625 140.542C596.59 140.947 596.395 141.321 596.083 141.583C595.772 141.844 595.369 141.971 594.964 141.936C594.769 141.927 594.577 141.877 594.402 141.79C594.227 141.704 594.072 141.581 593.946 141.431L588.642 135.026L582.247 140.392C582.106 140.514 581.943 140.607 581.766 140.666C581.589 140.724 581.402 140.747 581.217 140.733C580.811 140.698 580.437 140.503 580.176 140.191C579.914 139.88 579.787 139.477 579.823 139.072C579.836 138.884 579.887 138.701 579.973 138.534C580.059 138.367 580.178 138.219 580.323 138.1L586.778 132.754L581.356 126.292C581.126 126.024 581.008 125.677 581.025 125.324C581.061 124.919 581.256 124.545 581.567 124.283C581.879 124.022 582.281 123.895 582.687 123.931C583.053 123.967 583.391 124.146 583.628 124.428Z" fill="white"/>
<g filter="url(#filter2_d_3_46)">
<rect width="350" height="80" transform="translate(546 36.5916) rotate(-4.02902)" fill="#181818"/>
<path d="M643.341 62.2649L638.799 78.1741L636.497 78.3363L641.786 60.859L643.27 60.7544L643.341 62.2649ZM649.157 77.4446L642.418 62.3299L642.277 60.8244L643.761 60.7198L651.471 77.2816L649.157 77.4446ZM648.421 71.1644L648.551 73.0114L638.988 73.6849L638.858 71.8379L648.421 71.1644ZM656.65 76.9168L654.487 77.0691L653.502 63.0881C653.438 62.1763 653.548 61.3972 653.831 60.7507C654.122 60.0958 654.568 59.5867 655.169 59.2232C655.769 58.852 656.498 58.6362 657.355 58.5758C657.604 58.5583 657.855 58.5563 658.106 58.5699C658.366 58.5829 658.619 58.6121 658.865 58.6575L658.872 60.4309C658.706 60.4034 658.517 60.3893 658.305 60.3885C658.101 60.3872 657.898 60.3937 657.696 60.408C657.236 60.4404 656.845 60.5619 656.523 60.7725C656.208 60.9748 655.978 61.2574 655.831 61.6201C655.684 61.9829 655.629 62.4215 655.665 62.9358L656.65 76.9168ZM658.448 64.0791L658.564 65.739L651.714 66.2215L651.597 64.5616L658.448 64.0791ZM666.151 63.5365L666.268 65.1964L659.429 65.6781L659.313 64.0181L666.151 63.5365ZM661.411 60.7807L663.573 60.6284L664.46 73.2183C664.49 73.6469 664.579 73.9656 664.727 74.1745C664.875 74.3834 665.057 74.5155 665.272 74.5708C665.487 74.6261 665.716 74.6453 665.957 74.6283C666.137 74.6156 666.322 74.5869 666.515 74.542C666.715 74.4887 666.865 74.4469 666.964 74.4164L667.1 76.1807C666.933 76.2473 666.71 76.3139 666.433 76.3804C666.164 76.4542 665.835 76.5048 665.445 76.5322C664.915 76.5696 664.421 76.4987 663.962 76.3195C663.503 76.1404 663.123 75.8147 662.824 75.3424C662.532 74.8617 662.356 74.2006 662.297 73.3589L661.411 60.7807ZM674.844 75.8702C673.963 75.9323 673.154 75.8405 672.416 75.5948C671.686 75.3408 671.044 74.9592 670.491 74.4499C669.946 73.9401 669.511 73.3207 669.185 72.5917C668.86 71.8628 668.666 71.0541 668.603 70.1657L668.569 69.6747C668.496 68.646 668.584 67.7196 668.831 66.8955C669.078 66.0636 669.443 65.3487 669.925 64.7508C670.408 64.1529 670.97 63.6865 671.613 63.3515C672.255 63.0165 672.93 62.824 673.639 62.7741C674.543 62.7104 675.334 62.8113 676.01 63.077C676.695 63.342 677.267 63.7403 677.727 64.2718C678.187 64.7954 678.545 65.4281 678.801 66.1698C679.056 66.9037 679.215 67.7148 679.278 68.6032L679.346 69.5735L669.901 70.2388L669.776 68.4736L677.059 67.9607L677.048 67.797C676.977 67.2381 676.822 66.7008 676.582 66.1851C676.35 65.6689 676.007 65.2545 675.554 64.9417C675.102 64.629 674.505 64.4988 673.765 64.5509C673.274 64.5855 672.829 64.7225 672.431 64.962C672.032 65.1938 671.699 65.5227 671.431 65.9488C671.164 66.3749 670.969 66.8859 670.846 67.4819C670.724 68.078 670.689 68.7578 670.743 69.5216L670.778 70.0125C670.82 70.6126 670.942 71.1719 671.143 71.6903C671.351 72.2003 671.629 72.6428 671.976 73.0178C672.332 73.3922 672.747 73.6762 673.223 73.8698C673.706 74.0629 674.244 74.1386 674.836 74.0968C675.6 74.043 676.236 73.8416 676.744 73.4926C677.252 73.1435 677.686 72.6939 678.047 72.1438L679.43 73.092C679.186 73.5242 678.867 73.9422 678.472 74.3459C678.078 74.7496 677.581 75.0901 676.982 75.3672C676.39 75.6438 675.678 75.8115 674.844 75.8702ZM683.685 64.2985L684.436 74.9596L682.274 75.1119L681.383 62.4636L683.487 62.3154L683.685 64.2985ZM687.492 61.9628L687.622 63.9743C687.44 63.948 687.267 63.9366 687.102 63.9404C686.945 63.9358 686.766 63.9406 686.563 63.9549C686.064 63.99 685.629 64.099 685.258 64.2817C684.888 64.4645 684.58 64.7055 684.334 65.0047C684.089 65.3039 683.902 65.6538 683.774 66.0545C683.653 66.4468 683.585 66.8745 683.571 67.3376L682.987 67.7311C682.934 66.9673 682.957 66.2451 683.058 65.5645C683.167 64.8833 683.363 64.2743 683.646 63.7374C683.929 63.1928 684.305 62.759 684.776 62.4361C685.254 62.1048 685.836 61.915 686.522 61.8667C686.677 61.8557 686.858 61.8626 687.063 61.8873C687.268 61.9042 687.411 61.9293 687.492 61.9628ZM707.336 71.5023L707.465 73.3376L698.452 73.9724L698.323 72.1371L707.336 71.5023ZM697.71 56.9199L698.908 73.9403L696.652 74.0992L695.453 57.0789L697.71 56.9199ZM705.59 63.719L705.719 65.5543L697.898 66.1052L697.769 64.2699L705.59 63.719ZM706.15 56.3255L706.28 58.1724L697.384 58.799L697.254 56.9521L706.15 56.3255ZM712.948 72.9514L710.785 73.1037L709.8 59.1227C709.736 58.2109 709.846 57.4318 710.129 56.7853C710.42 56.1304 710.866 55.6213 711.467 55.2578C712.067 54.8866 712.796 54.6708 713.653 54.6104C713.902 54.5929 714.153 54.5909 714.404 54.6045C714.664 54.6175 714.917 54.6467 715.163 54.6921L715.17 56.4655C715.004 56.438 714.815 56.4239 714.603 56.4231C714.399 56.4218 714.196 56.4283 713.994 56.4426C713.534 56.475 713.143 56.5965 712.821 56.8071C712.506 57.0094 712.276 57.292 712.129 57.6547C711.982 58.0175 711.927 58.4561 711.963 58.9704L712.948 72.9514ZM714.746 60.1137L714.862 61.7736L708.012 62.2561L707.895 60.5962L714.746 60.1137ZM721.271 72.3651L719.108 72.5175L718.124 58.5365C718.059 57.6247 718.169 56.8455 718.452 56.199C718.743 55.5442 719.189 55.035 719.79 54.6716C720.39 54.3004 721.119 54.0846 721.976 54.0242C722.226 54.0066 722.476 54.0046 722.728 54.0182C722.987 54.0313 723.24 54.0605 723.486 54.1058L723.493 55.8792C723.327 55.8518 723.138 55.8377 722.926 55.8369C722.722 55.8356 722.519 55.8421 722.317 55.8563C721.857 55.8887 721.466 56.0102 721.144 56.2209C720.829 56.4232 720.599 56.7057 720.452 57.0685C720.305 57.4312 720.25 57.8698 720.286 58.3842L721.271 72.3651ZM723.069 59.5274L723.186 61.1874L716.335 61.6699L716.218 60.0099L723.069 59.5274ZM731.352 71.89C730.472 71.952 729.662 71.8602 728.925 71.6146C728.194 71.3606 727.552 70.979 727 70.4697C726.455 69.9598 726.019 69.3404 725.694 68.6115C725.368 67.8826 725.174 67.0739 725.112 66.1855L725.077 65.6945C725.005 64.6658 725.092 63.7394 725.34 62.9153C725.587 62.0834 725.951 61.3685 726.434 60.7706C726.916 60.1727 727.479 59.7063 728.121 59.3713C728.763 59.0363 729.439 58.8438 730.148 58.7938C731.052 58.7302 731.842 58.8311 732.519 59.0967C733.203 59.3618 733.776 59.7601 734.236 60.2916C734.696 60.8152 735.054 61.4479 735.309 62.1896C735.565 62.9234 735.724 63.7346 735.786 64.623L735.855 65.5933L726.409 66.2586L726.285 64.4934L733.568 63.9804L733.556 63.8168C733.485 63.2579 733.33 62.7206 733.09 62.2049C732.858 61.6887 732.516 61.2742 732.063 60.9615C731.61 60.6488 731.013 60.5185 730.273 60.5707C729.782 60.6053 729.338 60.7423 728.939 60.9818C728.541 61.2135 728.207 61.5424 727.94 61.9685C727.672 62.3947 727.477 62.9057 727.355 63.5017C727.232 64.0977 727.198 64.7776 727.252 65.5414L727.286 66.0323C727.328 66.6324 727.45 67.1916 727.651 67.7101C727.859 68.2201 728.137 68.6626 728.485 69.0376C728.84 69.412 729.255 69.696 729.731 69.8896C730.215 70.0827 730.753 70.1583 731.345 70.1166C732.109 70.0628 732.744 69.8614 733.252 69.5123C733.76 69.1633 734.195 68.7137 734.555 68.1636L735.938 69.1117C735.694 69.544 735.375 69.962 734.981 70.3657C734.586 70.7694 734.089 71.1098 733.49 71.387C732.899 71.6636 732.186 71.8313 731.352 71.89ZM743.735 69.2321C744.25 69.1959 744.718 69.0572 745.139 68.8161C745.561 68.5749 745.899 68.2613 746.154 67.8753C746.408 67.4814 746.538 67.0455 746.543 66.5673L748.601 66.4224C748.614 67.1733 748.41 67.8886 747.988 68.5684C747.573 69.2398 747.006 69.8006 746.286 70.2508C745.565 70.6931 744.757 70.9459 743.86 71.009C742.91 71.076 742.068 70.9669 741.335 70.6817C740.61 70.396 739.993 69.9774 739.484 69.4258C738.983 68.8737 738.589 68.2279 738.302 67.4885C738.023 66.7406 737.853 65.942 737.793 65.0926L737.758 64.6016C737.699 63.7521 737.755 62.9415 737.928 62.1696C738.108 61.3894 738.407 60.6909 738.826 60.074C739.252 59.4566 739.804 58.9556 740.482 58.5711C741.168 58.186 741.986 57.96 742.937 57.8931C743.926 57.8233 744.806 57.965 745.574 58.3181C746.343 58.6634 746.962 59.1681 747.432 59.832C747.908 60.4876 748.197 61.2505 748.298 62.1206L746.24 62.2655C746.164 61.7461 745.983 61.285 745.696 60.8823C745.417 60.479 745.051 60.1681 744.597 59.9494C744.15 59.7225 743.638 59.6293 743.062 59.6699C742.399 59.7166 741.851 59.8883 741.418 60.1851C740.992 60.4736 740.662 60.8492 740.428 61.3121C740.202 61.7666 740.049 62.2669 739.97 62.8129C739.898 63.3505 739.882 63.8959 739.921 64.4493L739.956 64.9402C739.995 65.4935 740.088 66.0352 740.235 66.5653C740.381 67.0953 740.599 67.5695 740.887 67.9878C741.183 68.4056 741.562 68.7313 742.025 68.965C742.495 69.1903 743.065 69.2794 743.735 69.2321ZM755.718 57.2277L755.835 58.8877L748.997 59.3693L748.88 57.7094L755.718 57.2277ZM750.978 54.4719L753.14 54.3196L754.027 66.9095C754.057 67.3382 754.146 67.6569 754.294 67.8658C754.442 68.0747 754.624 68.2068 754.839 68.2621C755.054 68.3174 755.283 68.3365 755.524 68.3195C755.704 68.3069 755.89 68.2781 756.082 68.2332C756.282 68.18 756.432 68.1381 756.532 68.1076L756.668 69.872C756.5 69.9386 756.278 70.0052 756 70.0717C755.731 70.1454 755.402 70.196 755.012 70.2235C754.482 70.2608 753.988 70.1899 753.529 70.0108C753.07 69.8317 752.691 69.5059 752.391 69.0336C752.099 68.553 751.923 67.8918 751.864 67.0502L750.978 54.4719Z" fill="white"/>
</g>
<g clip-path="url(#clip5_3_46)">
<path d="M586.659 71.1322C586.546 71.599 586.317 72.0297 585.993 72.3842C585.669 72.7388 585.261 73.0058 584.806 73.1604C583.542 73.62 582.197 73.8154 580.854 73.7345C580.584 73.7535 580.486 73.7604 580.459 73.368L580.037 67.3845C580.022 67.1638 580.008 66.9676 580.302 66.9469C581.465 66.8486 582.63 66.824 583.797 66.8733C584.295 66.8966 584.781 67.0363 585.215 67.281C585.65 67.5257 586.021 67.8688 586.299 68.2827C586.577 68.6966 586.755 69.1699 586.817 69.6647C586.88 70.1595 586.826 70.6621 586.659 71.1322Z" fill="#9747FF"/>
<path d="M600.707 47.6919L576.184 49.4192C572.932 49.6483 569.905 51.1597 567.767 53.6211C565.63 56.0825 564.557 59.2922 564.787 62.5441L566.514 87.0667C566.743 90.3186 568.254 93.3463 570.716 95.4838C573.177 97.6213 576.387 98.6934 579.639 98.4644L604.161 96.7371C607.413 96.508 610.441 94.9966 612.578 92.5352C614.716 90.0738 615.788 86.8641 615.559 83.6122L613.832 59.0896C613.603 55.8377 612.091 52.81 609.63 50.6725C607.168 48.535 603.959 47.4629 600.707 47.6919ZM589.928 74.5001C588.77 76.0076 587.075 77.0099 585.196 77.2978C583.98 77.5313 582.744 77.4706 581.532 77.7531L580.649 77.8153L581.093 84.1176C581.127 84.608 581.132 84.6816 580.617 84.7179L577.135 84.9632C576.767 84.9891 576.612 84.8768 576.584 84.4844L575.124 63.7629C575.102 63.4441 575.09 63.2724 575.531 63.2413L582.299 62.7646C583.908 62.598 585.533 62.8306 587.03 63.4418C588.197 63.8974 589.213 64.6731 589.959 65.6798C590.706 66.6866 591.153 67.8835 591.25 69.1331C591.401 70.0707 591.362 71.029 591.135 71.951C590.907 72.873 590.497 73.7399 589.928 74.5001ZM604.271 70.3107C604.296 70.654 604.105 70.7414 603.81 70.7621C602.591 70.813 601.396 71.1153 600.3 71.6502L599.991 71.8198C599.684 71.9421 599.428 72.1677 599.269 72.4577C599.109 72.7477 599.056 73.0841 599.117 73.4093L599.777 82.7769C599.817 83.3409 599.819 83.3654 599.255 83.4052L595.699 83.6556C595.184 83.6919 595.135 83.6953 595.095 83.1313L594.199 70.4041C594.133 69.4722 594.067 68.5404 593.879 67.6172C593.857 67.2984 593.846 67.1512 594.265 67.1464L597.526 66.9167C597.605 66.8969 597.687 66.8944 597.767 66.9092C597.847 66.9241 597.923 66.956 597.989 67.0028C598.056 67.0496 598.111 67.1101 598.152 67.1803C598.193 67.2505 598.218 67.3287 598.226 67.4095C598.261 67.9 598.469 68.4029 598.572 68.8146C599.271 68.2478 599.943 67.6337 600.695 67.1125C601.547 66.542 602.536 66.2087 603.559 66.1467C603.854 66.126 604.001 66.1156 604.03 66.5325L604.271 70.3107Z" fill="#9747FF"/>
<g clip-path="url(#clip6_3_46)">
<path d="M603.663 41.5523L572.397 43.7546C564.778 44.2912 559.038 50.902 559.574 58.5201L561.777 89.7864C562.313 97.4046 568.924 103.145 576.542 102.609L607.808 100.407C615.427 99.8699 621.167 93.2592 620.631 85.641L618.428 54.3747C617.892 46.7565 611.281 41.0157 603.663 41.5523Z" fill="#00005B"/>
<path d="M585.306 78.9152L576.184 79.5578L574.728 85.4763C574.694 85.7005 574.509 85.8614 574.286 85.8526L569.676 86.1773C569.406 86.1963 569.322 86.0544 569.375 85.7549L575.677 62.5642C575.733 62.314 575.791 62.0881 575.869 61.7869C575.93 61.265 575.941 60.722 575.903 60.1824C575.87 60.0616 575.96 59.9322 576.081 59.899L582.432 59.4516C582.604 59.4395 582.731 59.5044 582.765 59.6252L593.477 84.0078C593.57 84.2725 593.505 84.4003 593.26 84.4175L588.134 84.7785C587.965 84.8152 587.784 84.7045 587.723 84.5365L585.298 78.7927L585.306 78.9152ZM577.263 74.5775L583.491 74.1388C583.308 73.6342 583.068 73.0351 582.803 72.4129C582.535 71.7664 582.265 71.0708 581.992 70.3507C581.693 69.6077 581.421 68.8875 581.122 68.1448C580.823 67.402 580.553 66.7062 580.306 66.0087C580.062 65.3361 579.845 64.7104 579.632 64.134L579.583 64.1374C579.437 65.2075 579.241 66.2811 578.972 67.3596C578.687 68.5626 578.406 69.8148 578.1 71.0684C577.869 72.3416 577.558 73.5217 577.263 74.5775ZM607.368 75.1433L599.595 75.6908C599.746 76.4442 600.045 77.187 600.508 77.8197C600.997 78.4508 601.646 78.9225 602.402 79.165C603.413 79.5129 604.507 79.6576 605.584 79.5571C606.441 79.472 607.294 79.338 608.116 79.1077C608.857 78.9572 609.576 78.7161 610.259 78.3898C610.374 78.2833 610.451 78.3271 610.468 78.5724L610.733 82.3243C610.74 82.4223 610.722 82.5221 610.705 82.622C610.661 82.6991 610.615 82.7515 610.545 82.8056C609.785 83.2054 608.979 83.5104 608.145 83.714C607.013 84.0155 605.853 84.1964 604.683 84.2536C602.819 84.3849 601.229 84.2011 599.914 83.727C598.676 83.2967 597.565 82.5617 596.66 81.6151C595.817 80.725 595.165 79.6724 594.742 78.5216C594.318 77.3933 594.061 76.2037 593.975 74.9777C593.882 73.6535 593.986 72.34 594.313 71.0354C594.618 69.78 595.162 68.5953 595.916 67.5464C596.656 66.5084 597.606 65.6529 598.719 65.0076C599.832 64.3624 601.191 64.0696 602.761 63.9591C604.059 63.8429 605.376 63.9967 606.615 64.4514C607.652 64.822 608.581 65.4219 609.328 66.232C610.024 67.0207 610.605 67.9164 610.997 68.9239C611.384 69.8822 611.602 70.8774 611.673 71.8828C611.715 72.4713 611.726 72.988 611.735 73.4558C611.718 73.925 611.718 74.2702 611.709 74.4926C611.697 74.6658 611.56 74.8233 611.388 74.8354C611.241 74.8458 610.973 74.8894 610.582 74.9416C610.194 75.0182 609.729 75.0757 609.165 75.1154C608.601 75.1551 608.006 75.0984 607.368 75.1433ZM599.343 72.1106L604.517 71.7462C605.154 71.7013 605.62 71.6684 605.913 71.6231C606.107 71.5847 606.3 71.5219 606.463 71.3873L606.446 71.142C606.425 70.8335 606.354 70.5304 606.235 70.2449C605.697 68.9028 604.331 68.0626 602.888 68.2135C602.22 68.2231 601.569 68.4258 601.013 68.7973C600.458 69.1688 600.022 69.6931 599.758 70.307C599.503 70.8917 599.373 71.4923 599.343 72.1106Z" fill="#9999FF"/>
</g>
</g>
<path d="M858.026 46.1725L864.345 51.6607L869.805 45.3735C869.925 45.2263 870.074 45.1048 870.242 45.0164C870.41 44.9279 870.594 44.8744 870.783 44.8589C871.189 44.8303 871.59 44.964 871.897 45.2307C872.204 45.4973 872.392 45.875 872.421 46.2807C872.438 46.4679 872.416 46.6567 872.357 46.8353C872.298 47.0139 872.204 47.1786 872.079 47.3192L866.543 53.6118L872.912 59.1426C873.181 59.3715 873.352 59.6951 873.39 60.0466C873.419 60.4522 873.285 60.8526 873.019 61.1597C872.752 61.4667 872.374 61.6553 871.969 61.6838C871.774 61.7057 871.577 61.6868 871.391 61.6285C871.204 61.5702 871.032 61.4737 870.884 61.3452L864.641 55.8516L859.167 62.1551C859.047 62.2977 858.9 62.4152 858.735 62.5007C858.569 62.5862 858.388 62.6381 858.203 62.6534C857.797 62.682 857.397 62.5483 857.09 62.2816C856.783 62.015 856.594 61.6373 856.565 61.2316C856.549 61.0444 856.57 60.8556 856.629 60.677C856.688 60.4984 856.783 60.3337 856.907 60.1931L862.443 53.9005L856.074 48.3697C855.805 48.1408 855.634 47.8172 855.596 47.4657C855.567 47.0601 855.701 46.6597 855.968 46.3526C856.234 46.0456 856.612 45.857 857.018 45.8285C857.385 45.8072 857.747 45.9308 858.026 46.1725Z" fill="white"/>
<defs>
<filter id="filter0_d_3_46" x="0" y="0" width="370.945" height="174.832" filterUnits="userSpaceOnUse" color-interpolation-filters="sRGB">
<feFlood flood-opacity="0" result="BackgroundImageFix"/>
<feColorMatrix in="SourceAlpha" type="matrix" values="0 0 0 0 0 0 0 0 0 0 0 0 0 0 0 0 0 0 127 0" result="hardAlpha"/>
<feOffset dx="7" dy="7"/>
<feGaussianBlur stdDeviation="2.5"/>
<feComposite in2="hardAlpha" operator="out"/>
<feColorMatrix type="matrix" values="0 0 0 0 0 0 0 0 0 0 0 0 0 0 0 0 0 0 0.5 0"/>
<feBlend mode="normal" in2="BackgroundImageFix" result="effect1_dropShadow_3_46"/>
<feBlend mode="normal" in="SourceGraphic" in2="effect1_dropShadow_3_46" result="shape"/>
</filter>
<filter id="filter1_d_3_46" x="270" y="66" width="367.64" height="122.199" filterUnits="userSpaceOnUse" color-interpolation-filters="sRGB">
<feFlood flood-opacity="0" result="BackgroundImageFix"/>
<feColorMatrix in="SourceAlpha" type="matrix" values="0 0 0 0 0 0 0 0 0 0 0 0 0 0 0 0 0 0 127 0" result="hardAlpha"/>
<feOffset dx="7" dy="7"/>
<feGaussianBlur stdDeviation="2.5"/>
<feComposite in2="hardAlpha" operator="out"/>
<feColorMatrix type="matrix" values="0 0 0 0 0 0 0 0 0 0 0 0 0 0 0 0 0 0 0.5 0"/>
<feBlend mode="normal" in2="BackgroundImageFix" result="effect1_dropShadow_3_46"/>
<feBlend mode="normal" in="SourceGraphic" in2="effect1_dropShadow_3_46" result="shape"/>
</filter>
<filter id="filter2_d_3_46" x="546" y="12" width="366.756" height="116.394" filterUnits="userSpaceOnUse" color-interpolation-filters="sRGB">
<feFlood flood-opacity="0" result="BackgroundImageFix"/>
<feColorMatrix in="SourceAlpha" type="matrix" values="0 0 0 0 0 0 0 0 0 0 0 0 0 0 0 0 0 0 127 0" result="hardAlpha"/>
<feOffset dx="7" dy="7"/>
<feGaussianBlur stdDeviation="2.5"/>
<feComposite in2="hardAlpha" operator="out"/>
<feColorMatrix type="matrix" values="0 0 0 0 0 0 0 0 0 0 0 0 0 0 0 0 0 0 0.5 0"/>
<feBlend mode="normal" in2="BackgroundImageFix" result="effect1_dropShadow_3_46"/>
<feBlend mode="normal" in="SourceGraphic" in2="effect1_dropShadow_3_46" result="shape"/>
</filter>
<clipPath id="clip0_3_46">
<rect width="350" height="80" fill="white" transform="translate(0 85.2409) rotate(-14.0959)"/>
</clipPath>
<clipPath id="clip1_3_46">
<rect width="59" height="59" fill="white" transform="translate(14.0741 92.0173) rotate(-14.0959)"/>
</clipPath>
<clipPath id="clip2_3_46">
<rect width="23" height="23" fill="white" transform="translate(302.636 38.1165) rotate(-14.0959)"/>
</clipPath>
<clipPath id="clip3_3_46">
<rect width="59" height="59" fill="white" transform="translate(288.055 77.0078) rotate(4.99975)"/>
</clipPath>
<clipPath id="clip4_3_46">
<rect width="59" height="59" fill="white" transform="translate(284.07 76.6591) rotate(4.99975)"/>
</clipPath>
<clipPath id="clip5_3_46">
<rect width="59" height="59" fill="white" transform="translate(558.673 45.7238) rotate(-4.02902)"/>
</clipPath>
<clipPath id="clip6_3_46">
<rect width="59" height="59" fill="white" transform="translate(558.603 44.7262) rotate(-4.02902)"/>
</clipPath>
</defs>
</svg>
